<svg width="458" height="60" viewBox="0 0 458 60" fill="none" xmlns="http://www.w3.org/2000/svg">
<g filter="url(#filter0_i)">
<rect width="458" height="60" rx="7" fill="url(#paint0_linear)"/>
<path d="M38.1807 36H35.9658V24.9961H30.332V36H28.1172V23.2031H38.1807V36ZM48.9912 31.3418C48.9912 32.8125 48.6572 33.9873 47.9893 34.8662C47.3213 35.7393 46.4248 36.1758 45.2998 36.1758C44.2568 36.1758 43.4219 35.833 42.7949 35.1475V39.6562H40.6592V26.4902H42.6279L42.7158 27.457C43.3428 26.6953 44.1953 26.3145 45.2734 26.3145C46.4336 26.3145 47.3418 26.748 47.998 27.6152C48.6602 28.4766 48.9912 29.6748 48.9912 31.21V31.3418ZM46.8643 31.1572C46.8643 30.208 46.6738 29.4551 46.293 28.8984C45.918 28.3418 45.3789 28.0635 44.6758 28.0635C43.8027 28.0635 43.1758 28.4238 42.7949 29.1445V33.3633C43.1816 34.1016 43.8145 34.4707 44.6934 34.4707C45.373 34.4707 45.9033 34.1982 46.2842 33.6533C46.6709 33.1025 46.8643 32.2705 46.8643 31.1572ZM50.4062 31.1572C50.4062 30.2256 50.5908 29.3877 50.96 28.6436C51.3291 27.8936 51.8477 27.3193 52.5156 26.9209C53.1836 26.5166 53.9512 26.3145 54.8184 26.3145C56.1016 26.3145 57.1416 26.7275 57.9385 27.5537C58.7412 28.3799 59.1748 29.4756 59.2393 30.8408L59.248 31.3418C59.248 32.2793 59.0664 33.1172 58.7031 33.8555C58.3457 34.5938 57.8301 35.165 57.1562 35.5693C56.4883 35.9736 55.7148 36.1758 54.8359 36.1758C53.4941 36.1758 52.4189 35.7305 51.6104 34.8398C50.8076 33.9434 50.4062 32.751 50.4062 31.2627V31.1572ZM52.542 31.3418C52.542 32.3203 52.7441 33.0879 53.1484 33.6445C53.5527 34.1953 54.1152 34.4707 54.8359 34.4707C55.5566 34.4707 56.1162 34.1895 56.5146 33.627C56.9189 33.0645 57.1211 32.2412 57.1211 31.1572C57.1211 30.1963 56.9131 29.4346 56.4971 28.8721C56.0869 28.3096 55.5273 28.0283 54.8184 28.0283C54.1211 28.0283 53.5674 28.3066 53.1572 28.8633C52.7471 29.4141 52.542 30.2402 52.542 31.3418ZM66.9912 26.4902H69.1182V36H66.9912V29.6543L63.2646 36H61.1377V26.4902H63.2646V32.8359L66.9912 26.4902ZM67.9932 22.8428C67.9932 23.5811 67.7354 24.1787 67.2197 24.6357C66.7041 25.0928 66.0156 25.3213 65.1543 25.3213C64.293 25.3213 63.6045 25.0928 63.0889 24.6357C62.5732 24.1787 62.3154 23.5811 62.3154 22.8428H63.915C63.915 23.2295 64.0234 23.5312 64.2402 23.748C64.4629 23.959 64.7676 24.0645 65.1543 24.0645C65.541 24.0645 65.8428 23.959 66.0596 23.748C66.2764 23.5312 66.3848 23.2295 66.3848 22.8428H67.9932ZM78.874 28.1865H75.7891V36H73.6533V28.1865H70.6035V26.4902H78.874V28.1865ZM86.2393 26.4902H88.3662V36H86.2393V29.6543L82.5127 36H80.3857V26.4902H82.5127V32.8359L86.2393 26.4902ZM99.5986 27.0176C100.794 27.0176 101.752 27.4189 102.473 28.2217C103.193 29.0186 103.554 30.1025 103.554 31.4736V31.5791C103.554 32.9502 103.161 34.0605 102.376 34.9102C101.597 35.7598 100.536 36.1846 99.1943 36.1846C97.8877 36.1846 96.833 35.751 96.0303 34.8838C95.2275 34.0166 94.8262 32.833 94.8262 31.333V30.7178C94.8262 28.667 95.1895 27.0439 95.916 25.8486C96.6426 24.6533 97.7266 23.9062 99.168 23.6074C99.9766 23.4434 100.498 23.2705 100.732 23.0889C100.973 22.9014 101.093 22.6494 101.093 22.333H102.815C102.815 22.9248 102.719 23.4053 102.525 23.7744C102.332 24.1436 102.036 24.4453 101.638 24.6797C101.239 24.9082 100.554 25.125 99.5811 25.3301C98.6904 25.5176 98.0107 25.8516 97.542 26.332C97.0791 26.8125 96.7686 27.4775 96.6104 28.3271C97.46 27.4541 98.4561 27.0176 99.5986 27.0176ZM99.1768 28.7314C98.4854 28.7314 97.9434 28.9658 97.5508 29.4346C97.1582 29.8975 96.9619 30.6123 96.9619 31.5791C96.9619 32.4932 97.1553 33.2051 97.542 33.7148C97.9287 34.2246 98.4795 34.4795 99.1943 34.4795C99.9033 34.4795 100.451 34.2246 100.838 33.7148C101.23 33.1992 101.427 32.4258 101.427 31.3945C101.427 30.5742 101.23 29.9268 100.838 29.4521C100.451 28.9717 99.8975 28.7314 99.1768 28.7314ZM107.526 29.5137H109.618C110.397 29.5137 111.077 29.6484 111.657 29.918C112.237 30.1875 112.677 30.5654 112.976 31.0518C113.28 31.5381 113.433 32.1035 113.433 32.748C113.433 33.7266 113.087 34.5117 112.396 35.1035C111.704 35.6953 110.784 35.9941 109.636 36H105.391V26.4902H107.526V29.5137ZM117.15 36H115.015V26.4902H117.15V36ZM107.526 31.2275V34.2949H109.609C110.131 34.2949 110.541 34.166 110.84 33.9082C111.145 33.6445 111.297 33.2725 111.297 32.792C111.297 32.3115 111.147 31.9336 110.849 31.6582C110.556 31.377 110.157 31.2334 109.653 31.2275H107.526ZM123.619 34.4707C124.152 34.4707 124.595 34.3154 124.946 34.0049C125.298 33.6943 125.485 33.3105 125.509 32.8535H127.521C127.498 33.4453 127.313 33.999 126.968 34.5146C126.622 35.0244 126.153 35.4287 125.562 35.7275C124.97 36.0264 124.331 36.1758 123.646 36.1758C122.315 36.1758 121.261 35.7451 120.481 34.8838C119.702 34.0225 119.312 32.833 119.312 31.3154V31.0957C119.312 29.6484 119.699 28.4912 120.473 27.624C121.246 26.751 122.301 26.3145 123.637 26.3145C124.768 26.3145 125.688 26.6455 126.396 27.3076C127.111 27.9639 127.486 28.8281 127.521 29.9004H125.509C125.485 29.3555 125.298 28.9072 124.946 28.5557C124.601 28.2041 124.158 28.0283 123.619 28.0283C122.928 28.0283 122.395 28.2803 122.02 28.7842C121.645 29.2822 121.454 30.041 121.448 31.0605V31.4033C121.448 32.4346 121.633 33.2051 122.002 33.7148C122.377 34.2188 122.916 34.4707 123.619 34.4707ZM136.618 28.1865H133.533V36H131.397V28.1865H128.348V26.4902H136.618V28.1865ZM146.374 31.3418C146.374 32.8125 146.04 33.9873 145.372 34.8662C144.704 35.7393 143.808 36.1758 142.683 36.1758C141.64 36.1758 140.805 35.833 140.178 35.1475V39.6562H138.042V26.4902H140.011L140.099 27.457C140.726 26.6953 141.578 26.3145 142.656 26.3145C143.816 26.3145 144.725 26.748 145.381 27.6152C146.043 28.4766 146.374 29.6748 146.374 31.21V31.3418ZM144.247 31.1572C144.247 30.208 144.057 29.4551 143.676 28.8984C143.301 28.3418 142.762 28.0635 142.059 28.0635C141.186 28.0635 140.559 28.4238 140.178 29.1445V33.3633C140.564 34.1016 141.197 34.4707 142.076 34.4707C142.756 34.4707 143.286 34.1982 143.667 33.6533C144.054 33.1025 144.247 32.2705 144.247 31.1572ZM150.487 29.5137H152.579C153.358 29.5137 154.038 29.6484 154.618 29.918C155.198 30.1875 155.638 30.5654 155.937 31.0518C156.241 31.5381 156.394 32.1035 156.394 32.748C156.394 33.7266 156.048 34.5117 155.356 35.1035C154.665 35.6953 153.745 35.9941 152.597 36H148.352V26.4902H150.487V29.5137ZM160.111 36H157.976V26.4902H160.111V36ZM150.487 31.2275V34.2949H152.57C153.092 34.2949 153.502 34.166 153.801 33.9082C154.105 33.6445 154.258 33.2725 154.258 32.792C154.258 32.3115 154.108 31.9336 153.81 31.6582C153.517 31.377 153.118 31.2334 152.614 31.2275H150.487ZM168.61 26.4902H170.737V36H168.61V29.6543L164.884 36H162.757V26.4902H164.884V32.8359L168.61 26.4902ZM169.612 22.8428C169.612 23.5811 169.354 24.1787 168.839 24.6357C168.323 25.0928 167.635 25.3213 166.773 25.3213C165.912 25.3213 165.224 25.0928 164.708 24.6357C164.192 24.1787 163.935 23.5811 163.935 22.8428H165.534C165.534 23.2295 165.643 23.5312 165.859 23.748C166.082 23.959 166.387 24.0645 166.773 24.0645C167.16 24.0645 167.462 23.959 167.679 23.748C167.896 23.5312 168.004 23.2295 168.004 22.8428H169.612ZM184.976 28.1865H181.891V36H179.755V28.1865H176.705V26.4902H184.976V28.1865ZM190.029 36.1758C188.676 36.1758 187.577 35.751 186.733 34.9014C185.896 34.0459 185.477 32.9092 185.477 31.4912V31.2275C185.477 30.2783 185.658 29.4316 186.021 28.6875C186.391 27.9375 186.906 27.3545 187.568 26.9385C188.23 26.5225 188.969 26.3145 189.783 26.3145C191.078 26.3145 192.077 26.7275 192.78 27.5537C193.489 28.3799 193.844 29.5488 193.844 31.0605V31.9219H187.63C187.694 32.707 187.955 33.3281 188.412 33.7852C188.875 34.2422 189.455 34.4707 190.152 34.4707C191.131 34.4707 191.928 34.0752 192.543 33.2842L193.694 34.3828C193.313 34.9512 192.804 35.3936 192.165 35.71C191.532 36.0205 190.82 36.1758 190.029 36.1758ZM189.774 28.0283C189.188 28.0283 188.714 28.2334 188.351 28.6436C187.993 29.0537 187.765 29.625 187.665 30.3574H191.734V30.1992C191.688 29.4844 191.497 28.9453 191.163 28.582C190.829 28.2129 190.366 28.0283 189.774 28.0283ZM199.416 34.4707C199.949 34.4707 200.392 34.3154 200.743 34.0049C201.095 33.6943 201.282 33.3105 201.306 32.8535H203.318C203.295 33.4453 203.11 33.999 202.765 34.5146C202.419 35.0244 201.95 35.4287 201.358 35.7275C200.767 36.0264 200.128 36.1758 199.442 36.1758C198.112 36.1758 197.058 35.7451 196.278 34.8838C195.499 34.0225 195.109 32.833 195.109 31.3154V31.0957C195.109 29.6484 195.496 28.4912 196.27 27.624C197.043 26.751 198.098 26.3145 199.434 26.3145C200.564 26.3145 201.484 26.6455 202.193 27.3076C202.908 27.9639 203.283 28.8281 203.318 29.9004H201.306C201.282 29.3555 201.095 28.9072 200.743 28.5557C200.397 28.2041 199.955 28.0283 199.416 28.0283C198.725 28.0283 198.191 28.2803 197.816 28.7842C197.441 29.2822 197.251 30.041 197.245 31.0605V31.4033C197.245 32.4346 197.43 33.2051 197.799 33.7148C198.174 34.2188 198.713 34.4707 199.416 34.4707ZM212.415 28.1865H209.33V36H207.194V28.1865H204.145V26.4902H212.415V28.1865ZM224.263 26.4902H226.39V36H224.263V29.6543L220.536 36H218.409V26.4902H220.536V32.8359L224.263 26.4902ZM241.208 36H239.072V28.2129H235.363V36H233.228V26.4902H241.208V36ZM243.08 31.1572C243.08 30.2256 243.265 29.3877 243.634 28.6436C244.003 27.8936 244.521 27.3193 245.189 26.9209C245.857 26.5166 246.625 26.3145 247.492 26.3145C248.775 26.3145 249.815 26.7275 250.612 27.5537C251.415 28.3799 251.849 29.4756 251.913 30.8408L251.922 31.3418C251.922 32.2793 251.74 33.1172 251.377 33.8555C251.02 34.5938 250.504 35.165 249.83 35.5693C249.162 35.9736 248.389 36.1758 247.51 36.1758C246.168 36.1758 245.093 35.7305 244.284 34.8398C243.481 33.9434 243.08 32.751 243.08 31.2627V31.1572ZM245.216 31.3418C245.216 32.3203 245.418 33.0879 245.822 33.6445C246.227 34.1953 246.789 34.4707 247.51 34.4707C248.23 34.4707 248.79 34.1895 249.188 33.627C249.593 33.0645 249.795 32.2412 249.795 31.1572C249.795 30.1963 249.587 29.4346 249.171 28.8721C248.761 28.3096 248.201 28.0283 247.492 28.0283C246.795 28.0283 246.241 28.3066 245.831 28.8633C245.421 29.4141 245.216 30.2402 245.216 31.3418ZM261.669 26.4902V36H259.533V28.2129H256.844L256.668 31.5264C256.557 33.1201 256.249 34.2656 255.745 34.9629C255.247 35.6543 254.482 36 253.451 36H252.792L252.783 34.2246L253.223 34.1807C253.691 34.1162 254.031 33.832 254.242 33.3281C254.459 32.8184 254.597 31.8926 254.655 30.5508L254.831 26.4902H261.669ZM267.268 32.9414L269.201 26.4902H271.478L267.698 37.4414C267.118 39.041 266.134 39.8408 264.745 39.8408C264.435 39.8408 264.092 39.7881 263.717 39.6826V38.0303L264.121 38.0566C264.66 38.0566 265.064 37.957 265.334 37.7578C265.609 37.5645 265.826 37.2363 265.984 36.7734L266.292 35.9561L262.952 26.4902H265.255L267.268 32.9414ZM280.337 36H278.201V32.8271C277.65 32.9561 277.07 33.0205 276.461 33.0205C275.16 33.0205 274.167 32.71 273.481 32.0889C272.796 31.4619 272.453 30.5654 272.453 29.3994V26.4814H274.589V29.3994C274.589 30.0908 274.741 30.5801 275.046 30.8672C275.356 31.1543 275.828 31.2979 276.461 31.2979C277.035 31.2979 277.615 31.2305 278.201 31.0957V26.4902H280.337V36ZM288.546 26.4902H290.673V36H288.546V29.6543L284.819 36H282.692V26.4902H284.819V32.8359L288.546 26.4902ZM300.429 28.1865H297.344V36H295.208V28.1865H292.158V26.4902H300.429V28.1865ZM304.155 29.5137H306.247C307.026 29.5137 307.706 29.6484 308.286 29.918C308.866 30.1875 309.306 30.5654 309.604 31.0518C309.909 31.5381 310.062 32.1035 310.062 32.748C310.062 33.7266 309.716 34.5117 309.024 35.1035C308.333 35.6953 307.413 35.9941 306.265 36H302.02V26.4902H304.155V29.5137ZM304.155 31.2275V34.2949H306.238C306.76 34.2949 307.17 34.166 307.469 33.9082C307.773 33.6445 307.926 33.2725 307.926 32.792C307.926 32.3115 307.776 31.9336 307.478 31.6582C307.185 31.377 306.786 31.2334 306.282 31.2275H304.155ZM324.317 36H322.182V28.2129H318.473V36H316.337V26.4902H324.317V36ZM334.917 31.3418C334.917 32.8125 334.583 33.9873 333.915 34.8662C333.247 35.7393 332.351 36.1758 331.226 36.1758C330.183 36.1758 329.348 35.833 328.721 35.1475V39.6562H326.585V26.4902H328.554L328.642 27.457C329.269 26.6953 330.121 26.3145 331.199 26.3145C332.359 26.3145 333.268 26.748 333.924 27.6152C334.586 28.4766 334.917 29.6748 334.917 31.21V31.3418ZM332.79 31.1572C332.79 30.208 332.6 29.4551 332.219 28.8984C331.844 28.3418 331.305 28.0635 330.602 28.0635C329.729 28.0635 329.102 28.4238 328.721 29.1445V33.3633C329.107 34.1016 329.74 34.4707 330.619 34.4707C331.299 34.4707 331.829 34.1982 332.21 33.6533C332.597 33.1025 332.79 32.2705 332.79 31.1572ZM340.92 36.1758C339.566 36.1758 338.468 35.751 337.624 34.9014C336.786 34.0459 336.367 32.9092 336.367 31.4912V31.2275C336.367 30.2783 336.549 29.4316 336.912 28.6875C337.281 27.9375 337.797 27.3545 338.459 26.9385C339.121 26.5225 339.859 26.3145 340.674 26.3145C341.969 26.3145 342.968 26.7275 343.671 27.5537C344.38 28.3799 344.734 29.5488 344.734 31.0605V31.9219H338.521C338.585 32.707 338.846 33.3281 339.303 33.7852C339.766 34.2422 340.346 34.4707 341.043 34.4707C342.021 34.4707 342.818 34.0752 343.434 33.2842L344.585 34.3828C344.204 34.9512 343.694 35.3936 343.056 35.71C342.423 36.0205 341.711 36.1758 340.92 36.1758ZM340.665 28.0283C340.079 28.0283 339.604 28.2334 339.241 28.6436C338.884 29.0537 338.655 29.625 338.556 30.3574H342.625V30.1992C342.578 29.4844 342.388 28.9453 342.054 28.582C341.72 28.2129 341.257 28.0283 340.665 28.0283ZM346.439 34.2949C347.031 33.6328 347.427 33.0059 347.626 32.4141C347.831 31.8164 347.954 31.0547 347.995 30.1289L348.118 26.4902H354.719V34.2949H356.037V38.8301H353.91V36H347.811V38.8301H345.648L345.657 34.2949H346.439ZM348.944 34.2949H352.592V28.3271H350.192L350.131 30.1465C350.049 31.8926 349.653 33.2754 348.944 34.2949ZM365.644 26.4902V36H363.508V28.2129H360.818L360.643 31.5264C360.531 33.1201 360.224 34.2656 359.72 34.9629C359.222 35.6543 358.457 36 357.426 36H356.767L356.758 34.2246L357.197 34.1807C357.666 34.1162 358.006 33.832 358.217 33.3281C358.434 32.8184 358.571 31.8926 358.63 30.5508L358.806 26.4902H365.644ZM367.516 31.1572C367.516 30.2256 367.7 29.3877 368.069 28.6436C368.438 27.8936 368.957 27.3193 369.625 26.9209C370.293 26.5166 371.061 26.3145 371.928 26.3145C373.211 26.3145 374.251 26.7275 375.048 27.5537C375.851 28.3799 376.284 29.4756 376.349 30.8408L376.357 31.3418C376.357 32.2793 376.176 33.1172 375.812 33.8555C375.455 34.5938 374.939 35.165 374.266 35.5693C373.598 35.9736 372.824 36.1758 371.945 36.1758C370.604 36.1758 369.528 35.7305 368.72 34.8398C367.917 33.9434 367.516 32.751 367.516 31.2627V31.1572ZM369.651 31.3418C369.651 32.3203 369.854 33.0879 370.258 33.6445C370.662 34.1953 371.225 34.4707 371.945 34.4707C372.666 34.4707 373.226 34.1895 373.624 33.627C374.028 33.0645 374.23 32.2412 374.23 31.1572C374.23 30.1963 374.022 29.4346 373.606 28.8721C373.196 28.3096 372.637 28.0283 371.928 28.0283C371.23 28.0283 370.677 28.3066 370.267 28.8633C369.856 29.4141 369.651 30.2402 369.651 31.3418ZM386.342 32.1768H385.208V36H383.072V32.1768H381.947L379.759 36H377.14L380.295 31.0518L377.307 26.4902H379.917L382.07 30.2256H383.072V26.4902H385.208V30.2256H386.219L388.381 26.4902H390.991L388.012 31.0254L391.185 36H388.53L386.342 32.1768ZM396.52 36.1758C395.166 36.1758 394.067 35.751 393.224 34.9014C392.386 34.0459 391.967 32.9092 391.967 31.4912V31.2275C391.967 30.2783 392.148 29.4316 392.512 28.6875C392.881 27.9375 393.396 27.3545 394.059 26.9385C394.721 26.5225 395.459 26.3145 396.273 26.3145C397.568 26.3145 398.567 26.7275 399.271 27.5537C399.979 28.3799 400.334 29.5488 400.334 31.0605V31.9219H394.12C394.185 32.707 394.445 33.3281 394.902 33.7852C395.365 34.2422 395.945 34.4707 396.643 34.4707C397.621 34.4707 398.418 34.0752 399.033 33.2842L400.185 34.3828C399.804 34.9512 399.294 35.3936 398.655 35.71C398.022 36.0205 397.311 36.1758 396.52 36.1758ZM396.265 28.0283C395.679 28.0283 395.204 28.2334 394.841 28.6436C394.483 29.0537 394.255 29.625 394.155 30.3574H398.225V30.1992C398.178 29.4844 397.987 28.9453 397.653 28.582C397.319 28.2129 396.856 28.0283 396.265 28.0283ZM410.055 36H407.919V32.1592H404.219V36H402.083V26.4902H404.219V30.4541H407.919V26.4902H410.055V36ZM418.272 26.4902H420.399V36H418.272V29.6543L414.546 36H412.419V26.4902H414.546V32.8359L418.272 26.4902ZM426.859 36.1758C425.506 36.1758 424.407 35.751 423.563 34.9014C422.726 34.0459 422.307 32.9092 422.307 31.4912V31.2275C422.307 30.2783 422.488 29.4316 422.852 28.6875C423.221 27.9375 423.736 27.3545 424.398 26.9385C425.061 26.5225 425.799 26.3145 426.613 26.3145C427.908 26.3145 428.907 26.7275 429.61 27.5537C430.319 28.3799 430.674 29.5488 430.674 31.0605V31.9219H424.46C424.524 32.707 424.785 33.3281 425.242 33.7852C425.705 34.2422 426.285 34.4707 426.982 34.4707C427.961 34.4707 428.758 34.0752 429.373 33.2842L430.524 34.3828C430.144 34.9512 429.634 35.3936 428.995 35.71C428.362 36.0205 427.65 36.1758 426.859 36.1758ZM426.604 28.0283C426.019 28.0283 425.544 28.2334 425.181 28.6436C424.823 29.0537 424.595 29.625 424.495 30.3574H428.564V30.1992C428.518 29.4844 428.327 28.9453 427.993 28.582C427.659 28.2129 427.196 28.0283 426.604 28.0283Z" fill="white"/>
</g>
<path opacity="0.7" d="M304.953 59.5L345.705 0.5H377.432L336.68 59.5H304.953Z" fill="white" stroke="#03AAEE"/>
<defs>
<filter id="filter0_i" x="0" y="0" width="458" height="60" filterUnits="userSpaceOnUse" color-interpolation-filters="sRGB">
<feFlood flood-opacity="0" result="BackgroundImageFix"/>
<feBlend mode="normal" in="SourceGraphic" in2="BackgroundImageFix" result="shape"/>
<feColorMatrix in="SourceAlpha" type="matrix" values="0 0 0 0 0 0 0 0 0 0 0 0 0 0 0 0 0 0 127 0" result="hardAlpha"/>
<feOffset/>
<feGaussianBlur stdDeviation="2"/>
<feComposite in2="hardAlpha" operator="arithmetic" k2="-1" k3="1"/>
<feColorMatrix type="matrix" values="0 0 0 0 0 0 0 0 0 0.392157 0 0 0 0 0.882353 0 0 0 0.3 0"/>
<feBlend mode="normal" in2="shape" result="effect1_innerShadow"/>
</filter>
<linearGradient id="paint0_linear" x1="0" y1="30" x2="458" y2="30" gradientUnits="userSpaceOnUse">
<stop stop-color="#0064E1"/>
<stop offset="1" stop-color="#03AAEE"/>
</linearGradient>
</defs>
</svg>
