<svg width="270" height="60" viewBox="0 0 270 60" fill="none" xmlns="http://www.w3.org/2000/svg">
<g filter="url(#filter0_i)">
<rect width="270" height="60" rx="7" fill="url(#paint0_linear)"/>
<path d="M111.134 36V23.2031H115.52C116.967 23.2031 118.069 23.4932 118.825 24.0732C119.58 24.6533 119.958 25.5176 119.958 26.666C119.958 27.252 119.8 27.7793 119.484 28.248C119.167 28.7168 118.704 29.0801 118.095 29.3379C118.787 29.5254 119.32 29.8799 119.695 30.4014C120.076 30.917 120.266 31.5381 120.266 32.2646C120.266 33.4658 119.879 34.3887 119.106 35.0332C118.338 35.6777 117.237 36 115.801 36H111.134ZM113.358 30.2256V34.2246H115.828C116.525 34.2246 117.07 34.0518 117.462 33.7061C117.855 33.3604 118.051 32.8799 118.051 32.2646C118.051 30.9346 117.371 30.2549 116.012 30.2256H113.358ZM113.358 28.5908H115.538C116.229 28.5908 116.768 28.4355 117.155 28.125C117.547 27.8086 117.744 27.3633 117.744 26.7891C117.744 26.1562 117.562 25.6992 117.199 25.418C116.841 25.1367 116.282 24.9961 115.52 24.9961H113.358V28.5908ZM121.883 31.1572C121.883 30.2256 122.068 29.3877 122.437 28.6436C122.806 27.8936 123.325 27.3193 123.993 26.9209C124.661 26.5166 125.428 26.3145 126.295 26.3145C127.579 26.3145 128.619 26.7275 129.415 27.5537C130.218 28.3799 130.652 29.4756 130.716 30.8408L130.725 31.3418C130.725 32.2793 130.543 33.1172 130.18 33.8555C129.823 34.5938 129.307 35.165 128.633 35.5693C127.965 35.9736 127.192 36.1758 126.313 36.1758C124.971 36.1758 123.896 35.7305 123.087 34.8398C122.285 33.9434 121.883 32.751 121.883 31.2627V31.1572ZM124.019 31.3418C124.019 32.3203 124.221 33.0879 124.625 33.6445C125.03 34.1953 125.592 34.4707 126.313 34.4707C127.034 34.4707 127.593 34.1895 127.992 33.627C128.396 33.0645 128.598 32.2412 128.598 31.1572C128.598 30.1963 128.39 29.4346 127.974 28.8721C127.564 28.3096 127.004 28.0283 126.295 28.0283C125.598 28.0283 125.044 28.3066 124.634 28.8633C124.224 29.4141 124.019 30.2402 124.019 31.3418ZM138.468 26.4902H140.595V36H138.468V29.6543L134.742 36H132.615V26.4902H134.742V32.8359L138.468 26.4902ZM139.47 22.8428C139.47 23.5811 139.212 24.1787 138.697 24.6357C138.181 25.0928 137.493 25.3213 136.631 25.3213C135.77 25.3213 135.081 25.0928 134.566 24.6357C134.05 24.1787 133.792 23.5811 133.792 22.8428H135.392C135.392 23.2295 135.5 23.5312 135.717 23.748C135.94 23.959 136.245 24.0645 136.631 24.0645C137.018 24.0645 137.32 23.959 137.537 23.748C137.753 23.5312 137.862 23.2295 137.862 22.8428H139.47ZM150.351 28.1865H147.266V36H145.13V28.1865H142.08V26.4902H150.351V28.1865ZM157.716 26.4902H159.843V36H157.716V29.6543L153.99 36H151.863V26.4902H153.99V32.8359L157.716 26.4902Z" fill="white"/>
</g>
<path opacity="0.7" d="M2.92134 59.5L41.2713 0.5H71.0787L32.7287 59.5H2.92134Z" fill="white" stroke="#03AAEE"/>
<defs>
<filter id="filter0_i" x="0" y="0" width="270" height="60" filterUnits="userSpaceOnUse" color-interpolation-filters="sRGB">
<feFlood flood-opacity="0" result="BackgroundImageFix"/>
<feBlend mode="normal" in="SourceGraphic" in2="BackgroundImageFix" result="shape"/>
<feColorMatrix in="SourceAlpha" type="matrix" values="0 0 0 0 0 0 0 0 0 0 0 0 0 0 0 0 0 0 127 0" result="hardAlpha"/>
<feOffset/>
<feGaussianBlur stdDeviation="2"/>
<feComposite in2="hardAlpha" operator="arithmetic" k2="-1" k3="1"/>
<feColorMatrix type="matrix" values="0 0 0 0 0 0 0 0 0 0.392157 0 0 0 0 0.882353 0 0 0 0.3 0"/>
<feBlend mode="normal" in2="shape" result="effect1_innerShadow"/>
</filter>
<linearGradient id="paint0_linear" x1="0" y1="30" x2="270" y2="30" gradientUnits="userSpaceOnUse">
<stop stop-color="#0064E1"/>
<stop offset="1" stop-color="#03AAEE"/>
</linearGradient>
</defs>
</svg>
