<svg width="80" height="80" viewBox="0 0 80 80" fill="none" xmlns="http://www.w3.org/2000/svg">
<path d="M50 69.3726C45.8636 69.3726 42.5 66.0089 42.5 61.8726C42.5 57.7362 45.8636 54.3726 50 54.3726C50.6915 54.3726 51.25 54.931 51.25 55.6226C51.25 56.3135 50.6915 56.8726 50 56.8726C47.2424 56.8726 45 59.115 45 61.8726C45 64.6301 47.2424 66.8726 50 66.8726C50.6915 66.8726 51.25 67.431 51.25 68.1226C51.25 68.8135 50.6915 69.3726 50 69.3726Z" fill="#0064E1"/>
<path d="M78.75 56.8726H50C49.3085 56.8726 48.75 56.3135 48.75 55.6226C48.75 54.931 49.3085 54.3726 50 54.3726H78.75C79.4415 54.3726 80 54.931 80 55.6226C80 56.3135 79.4415 56.8726 78.75 56.8726Z" fill="#0064E1"/>
<path d="M78.75 69.3726H50C49.3085 69.3726 48.75 68.8135 48.75 68.1226C48.75 67.431 49.3085 66.8726 50 66.8726H78.75C79.4415 66.8726 80 67.431 80 68.1226C80 68.8135 79.4415 69.3726 78.75 69.3726Z" fill="#0064E1"/>
<path d="M76.25 69.3726C75.5585 69.3726 75 68.8135 75 68.1226V55.6226C75 54.931 75.5585 54.3726 76.25 54.3726C76.9415 54.3726 77.5 54.931 77.5 55.6226V68.1226C77.5 68.8135 76.9415 69.3726 76.25 69.3726Z" fill="#0064E1"/>
<path d="M71.25 53.1226C70.5585 53.1226 70 52.5635 70 51.8726C70 51.181 70.5585 50.6226 71.25 50.6226C73.3173 50.6226 75 48.9398 75 46.8726C75 44.8053 73.3173 43.1226 71.25 43.1226C70.5585 43.1226 70 42.5635 70 41.8726C70 41.1823 70.5585 40.6226 71.25 40.6226C74.696 40.6226 77.5 43.4265 77.5 46.8726C77.5 50.3186 74.696 53.1226 71.25 53.1226Z" fill="#0064E1"/>
<path d="M71.25 53.1226H47.5C46.8085 53.1226 46.25 52.5635 46.25 51.8726C46.25 51.181 46.8085 50.6226 47.5 50.6226H71.25C71.9415 50.6226 72.5 51.181 72.5 51.8726C72.5 52.5635 71.9415 53.1226 71.25 53.1226Z" fill="#0064E1"/>
<path d="M71.25 43.1226H47.5C46.8085 43.1226 46.25 42.5635 46.25 41.8726C46.25 41.1823 46.8085 40.6226 47.5 40.6226H71.25C71.9415 40.6226 72.5 41.1823 72.5 41.8726C72.5 42.5635 71.9415 43.1226 71.25 43.1226Z" fill="#0064E1"/>
<path d="M50 53.1226C49.3085 53.1226 48.75 52.5635 48.75 51.8726V41.8726C48.75 41.1823 49.3085 40.6226 50 40.6226C50.6915 40.6226 51.25 41.1823 51.25 41.8726V51.8726C51.25 52.5635 50.6915 53.1226 50 53.1226Z" fill="#0064E1"/>
<path d="M1.25 59.3701C0.558472 59.3701 0 58.811 0 58.1201C0 53.2977 3.92639 49.3726 8.75 49.3726C9.44153 49.3726 10 49.931 10 50.6226C10 51.3135 9.44153 51.8726 8.75 51.8726C5.30396 51.8726 2.5 54.6753 2.5 58.1201C2.5 58.811 1.94153 59.3701 1.25 59.3701Z" fill="#0064E1"/>
<path d="M13.75 51.8726H8.75C8.05847 51.8726 7.5 51.3135 7.5 50.6226C7.5 49.931 8.05847 49.3726 8.75 49.3726H13.75C14.4415 49.3726 15 49.931 15 50.6226C15 51.3135 14.4415 51.8726 13.75 51.8726Z" fill="#0064E1"/>
<path d="M1.25 66.8726C0.558472 66.8726 0 66.3135 0 65.6226V58.479C0 57.7875 0.558472 57.229 1.25 57.229C1.94153 57.229 2.5 57.7875 2.5 58.479V65.6226C2.5 66.3135 1.94153 66.8726 1.25 66.8726Z" fill="#0064E1"/>
<path d="M38.75 59.3701C38.0585 59.3701 37.5 58.811 37.5 58.1201C37.5 54.6753 34.696 51.8726 31.25 51.8726C30.5585 51.8726 30 51.3135 30 50.6226C30 49.931 30.5585 49.3726 31.25 49.3726C36.0736 49.3726 40 53.2977 40 58.1201C40 58.811 39.4415 59.3701 38.75 59.3701Z" fill="#0064E1"/>
<path d="M31.25 51.8726H26.25C25.5585 51.8726 25 51.3135 25 50.6226C25 49.931 25.5585 49.3726 26.25 49.3726H31.25C31.9415 49.3726 32.5 49.931 32.5 50.6226C32.5 51.3135 31.9415 51.8726 31.25 51.8726Z" fill="#0064E1"/>
<path d="M38.75 66.8726C38.0585 66.8726 37.5 66.3135 37.5 65.6226V58.479C37.5 57.7875 38.0585 57.229 38.75 57.229C39.4415 57.229 40 57.7875 40 58.479V65.6226C40 66.3135 39.4415 66.8726 38.75 66.8726Z" fill="#0064E1"/>
<path d="M36.25 69.3726H3.75C3.05847 69.3726 2.5 68.8135 2.5 68.1226C2.5 67.431 3.05847 66.8726 3.75 66.8726H36.25C36.9415 66.8726 37.5 67.431 37.5 68.1226C37.5 68.8135 36.9415 69.3726 36.25 69.3726Z" fill="#0064E1"/>
<path d="M13.75 51.8726C13.0585 51.8726 12.5 51.3135 12.5 50.6226V46.6211C12.5 45.9302 13.0585 45.3711 13.75 45.3711C14.4415 45.3711 15 45.9302 15 46.6211V50.6226C15 51.3135 14.4415 51.8726 13.75 51.8726Z" fill="#0064E1"/>
<path d="M26.25 51.8726C25.5585 51.8726 25 51.3135 25 50.6226V46.6211C25 45.9302 25.5585 45.3711 26.25 45.3711C26.9415 45.3711 27.5 45.9302 27.5 46.6211V50.6226C27.5 51.3135 26.9415 51.8726 26.25 51.8726Z" fill="#0064E1"/>
<path d="M20 49.3726C11.7285 49.3726 5 42.644 5 34.3726C5 33.6823 5.55847 33.1226 6.25 33.1226C6.94153 33.1226 7.5 33.6823 7.5 34.3726C7.5 41.2653 13.1073 46.8726 20 46.8726C26.8927 46.8726 32.5 41.2653 32.5 34.3726C32.5 33.6823 33.0585 33.1226 33.75 33.1226C34.4415 33.1226 35 33.6823 35 34.3726C35 42.644 28.2715 49.3726 20 49.3726Z" fill="#0064E1"/>
<path d="M6.25 35.625C5.55847 35.625 5 35.0647 5 34.375V23.125C5 22.4353 5.55847 21.875 6.25 21.875C6.94153 21.875 7.5 22.4353 7.5 23.125V34.375C7.5 35.0647 6.94153 35.625 6.25 35.625Z" fill="#0064E1"/>
<path d="M33.75 35.625C33.0585 35.625 32.5 35.0647 32.5 34.375V23.125C32.5 22.4353 33.0585 21.875 33.75 21.875C34.4415 21.875 35 22.4353 35 23.125V34.375C35 35.0647 34.4415 35.625 33.75 35.625Z" fill="#0064E1"/>
<path d="M33.75 24.375C33.0585 24.375 32.5 23.8147 32.5 23.125C32.5 20.3674 30.2576 18.125 27.5 18.125C26.8085 18.125 26.25 17.5647 26.25 16.875C26.25 16.1853 26.8085 15.625 27.5 15.625C31.6364 15.625 35 18.9886 35 23.125C35 23.8147 34.4415 24.375 33.75 24.375Z" fill="#0064E1"/>
<path d="M27.5 18.125C26.8085 18.125 26.25 17.5647 26.25 16.875V11.875C26.25 11.1853 26.8085 10.625 27.5 10.625C28.1915 10.625 28.75 11.1853 28.75 11.875V16.875C28.75 17.5647 28.1915 18.125 27.5 18.125Z" fill="#0064E1"/>
<path d="M27.5 13.125H17.5C16.8085 13.125 16.25 12.5647 16.25 11.875C16.25 11.1853 16.8085 10.625 17.5 10.625H27.5C28.1915 10.625 28.75 11.1853 28.75 11.875C28.75 12.5647 28.1915 13.125 27.5 13.125Z" fill="#0064E1"/>
<path d="M6.25 24.375C5.55847 24.375 5 23.8147 5 23.125C5 16.2323 10.6073 10.625 17.5 10.625C18.1915 10.625 18.75 11.1853 18.75 11.875C18.75 12.5647 18.1915 13.125 17.5 13.125C11.9861 13.125 7.5 17.6111 7.5 23.125C7.5 23.8147 6.94153 24.375 6.25 24.375Z" fill="#0064E1"/>
<path d="M33.75 30.625C33.4301 30.625 33.1097 30.5023 32.8662 30.2588L29.1162 26.5088C28.6273 26.0199 28.6273 25.2301 29.1162 24.7412C29.6051 24.2523 30.3949 24.2523 30.8838 24.7412L34.6338 28.4912C35.1227 28.9801 35.1227 29.7699 34.6338 30.2588C34.3902 30.5035 34.0698 30.625 33.75 30.625Z" fill="#0064E1"/>
<path d="M20.0002 29.3749C14.3941 29.3749 9.60894 26.8334 9.40753 26.7247C8.80023 26.3988 8.57257 25.6414 8.89911 25.0335C9.22503 24.4274 9.98004 24.1973 10.5916 24.5238C10.6349 24.5476 15.0417 26.8749 20.0002 26.8749C24.9837 26.8749 29.3642 24.5476 29.4075 24.525C30.0142 24.1948 30.7741 24.4249 31.1 25.0322C31.4278 25.6401 31.1989 26.3988 30.5916 26.7247C30.3914 26.8334 25.6063 29.3749 20.0002 29.3749Z" fill="#0064E1"/>
<path d="M6.24997 30.625C5.93015 30.625 5.60971 30.5023 5.36618 30.2588C4.87729 29.7699 4.87729 28.9801 5.36618 28.4912L9.11618 24.7412C9.60507 24.2523 10.3949 24.2523 10.8838 24.7412C11.3727 25.2301 11.3727 26.0199 10.8838 26.5088L7.13376 30.2588C6.89023 30.5035 6.56979 30.625 6.24997 30.625Z" fill="#0064E1"/>
<path d="M17.4998 54.3726C17.2624 54.3726 17.0213 54.3037 16.8071 54.1627L13.0558 51.6627C12.4821 51.2788 12.3259 50.5036 12.7098 49.9287C13.0925 49.3537 13.8658 49.1999 14.4438 49.5826L18.195 52.0826C18.7687 52.4665 18.925 53.241 18.5411 53.8166C18.3012 54.1773 17.9039 54.3726 17.4998 54.3726Z" fill="#0064E1"/>
<path d="M17.5023 54.3726C17.0433 54.3726 16.6026 54.1199 16.3823 53.6811C16.0735 53.064 16.3237 52.3127 16.9414 52.0038L19.4396 50.7538C20.0572 50.4474 20.8086 50.6952 21.1174 51.3123C21.4262 51.93 21.176 52.6813 20.5583 52.9901L18.0602 54.2401C17.8813 54.3299 17.6897 54.3726 17.5023 54.3726Z" fill="#0064E1"/>
<path d="M22.4998 54.3726C22.0958 54.3726 21.6984 54.1773 21.4586 53.8166C21.0746 53.241 21.2309 52.4665 21.8046 52.0826L25.5559 49.5826C26.1308 49.1999 26.9072 49.3537 27.2899 49.9287C27.6738 50.5036 27.5175 51.2788 26.9438 51.6627L23.1926 54.1627C22.9783 54.3049 22.7372 54.3726 22.4998 54.3726Z" fill="#0064E1"/>
<path d="M22.4974 54.3726C22.31 54.3726 22.1184 54.3299 21.9396 54.2414L19.4414 52.9914C18.8237 52.6825 18.5735 51.9312 18.8823 51.3135C19.1924 50.6964 19.9425 50.4486 20.5602 50.755L23.0583 52.005C23.676 52.3139 23.9262 53.0652 23.6174 53.6823C23.3971 54.1199 22.9564 54.3726 22.4974 54.3726Z" fill="#0064E1"/>
<path d="M36.25 69.3726C35.5585 69.3726 35 68.8135 35 68.1226C35 67.431 35.5585 66.8726 36.25 66.8726C36.9397 66.8726 37.5 66.3123 37.5 65.6226C37.5 64.931 38.0585 64.3726 38.75 64.3726C39.4415 64.3726 40 64.931 40 65.6226C40 67.691 38.3173 69.3726 36.25 69.3726Z" fill="#0064E1"/>
<path d="M3.75 69.3726C1.68274 69.3726 0 67.6898 0 65.6226C0 64.931 0.558472 64.3726 1.25 64.3726C1.94153 64.3726 2.5 64.931 2.5 65.6226C2.5 66.3123 3.0603 66.8726 3.75 66.8726C4.44153 66.8726 5 67.431 5 68.1226C5 68.8135 4.44153 69.3726 3.75 69.3726Z" fill="#0064E1"/>
<path d="M21.2525 69.4C21.139 69.4 21.0224 69.3848 20.9089 69.3524C20.2448 69.1638 19.8603 68.4711 20.0489 67.8076L25.0477 50.2814C25.2375 49.6173 25.9315 49.231 26.5925 49.4214C27.2566 49.61 27.6411 50.3027 27.4525 50.9662L22.4537 68.4924C22.2962 69.0424 21.7964 69.4 21.2525 69.4Z" fill="#0064E1"/>
<path d="M23.7524 69.4002C23.5534 69.4002 23.3514 69.3526 23.1622 69.2513C22.5537 68.9254 22.3248 68.1679 22.6525 67.5588L28.3337 56.9716L27.8949 56.5413C27.5085 56.1629 27.4102 55.5788 27.6501 55.0954L30.1336 50.0692C30.4388 49.4515 31.1889 49.1976 31.8084 49.5028C32.4273 49.8092 32.6812 50.5587 32.3748 51.1776L30.2923 55.3914L30.7537 55.8437C31.1499 56.2337 31.2439 56.838 30.9802 57.3275L24.8547 68.7416C24.6301 69.1603 24.1973 69.4002 23.7524 69.4002Z" fill="#0064E1"/>
<path d="M18.7426 69.3999C18.1988 69.3999 17.6989 69.0423 17.5414 68.4924L12.5426 50.9661C12.3534 50.3027 12.7373 49.6099 13.4026 49.4213C14.0673 49.2376 14.7576 49.616 14.9474 50.2813L19.9462 67.8075C20.1348 68.471 19.7509 69.1637 19.0862 69.3523C18.9727 69.3835 18.8561 69.3999 18.7426 69.3999Z" fill="#0064E1"/>
<path d="M16.2427 69.4C15.7977 69.4 15.365 69.1614 15.1398 68.7414L9.01487 57.3273C8.7512 56.8378 8.84397 56.2335 9.24131 55.8435L9.70274 55.3912L7.62022 51.1774C7.31382 50.5585 7.56773 49.809 8.18602 49.5026C8.80735 49.1962 9.55626 49.4513 9.86143 50.069L12.345 55.0952C12.5836 55.5798 12.4847 56.1627 12.1002 56.5411L11.6614 56.9714L17.3425 67.5586C17.6703 68.1665 17.4414 68.9252 16.8323 69.2511C16.6437 69.3524 16.441 69.4 16.2427 69.4Z" fill="#0064E1"/>
<path d="M18.75 58.1502C18.2251 58.1502 17.7362 57.8175 17.5635 57.2914L16.3147 53.5151C16.0974 52.8615 16.4539 52.1528 17.11 51.9362C17.7637 51.7115 18.4723 52.0753 18.689 52.7314L19.9377 56.5077C20.155 57.1614 19.7986 57.87 19.1425 58.0867C19.0124 58.13 18.88 58.1502 18.75 58.1502Z" fill="#0064E1"/>
<path d="M21.2501 58.1249C21.1201 58.1249 20.9865 58.1036 20.8565 58.0615C20.2015 57.8423 19.8463 57.1349 20.0636 56.48L21.3124 52.7276C21.5315 52.0727 22.2377 51.7199 22.8938 51.9347C23.5487 52.1539 23.9039 52.8613 23.6867 53.5162L22.4379 57.2686C22.2627 57.7947 21.7738 58.1249 21.2501 58.1249Z" fill="#0064E1"/>
<path d="M17.3187 64.4C17.226 64.4 17.1326 64.3902 17.0374 64.3689C16.3648 64.215 15.9448 63.5449 16.0986 62.871L17.5311 56.6211C17.6862 55.9484 18.3551 55.5224 19.0289 55.6823C19.7015 55.8361 20.1215 56.5063 19.9677 57.1801L18.5352 63.4301C18.4039 64.0075 17.89 64.4 17.3187 64.4Z" fill="#0064E1"/>
<path d="M22.6762 64.4001C22.1061 64.4001 21.591 64.0076 21.4573 63.4278L20.0309 57.1528C19.8771 56.4802 20.2983 55.81 20.9721 55.6574C21.6411 55.4939 22.3137 55.9266 22.4687 56.5986L23.8963 62.8736C24.0483 63.5462 23.6271 64.2164 22.9533 64.369C22.8611 64.3903 22.7672 64.4001 22.6762 64.4001Z" fill="#0064E1"/>
<path d="M21.25 58.1499H18.75C18.0585 58.1499 17.5 57.5914 17.5 56.8999C17.5 56.2084 18.0585 55.6499 18.75 55.6499H21.25C21.9415 55.6499 22.5 56.2084 22.5 56.8999C22.5 57.5914 21.9415 58.1499 21.25 58.1499Z" fill="#0064E1"/>
<path d="M71.2666 18.1499H53.7739C53.0824 18.1499 52.5239 17.5896 52.5239 16.8999C52.5239 16.2096 53.0824 15.6499 53.7739 15.6499H71.2666C71.9575 15.6499 72.5166 16.2096 72.5166 16.8999C72.5166 17.5896 71.9563 18.1499 71.2666 18.1499Z" fill="#0064E1"/>
<path d="M62.5215 39.4023C61.83 39.4023 61.2715 38.8427 61.2715 38.1523V13.1499C61.2715 12.4596 61.83 11.8999 62.5215 11.8999C63.2124 11.8999 63.7715 12.4596 63.7715 13.1499V38.1523C63.7715 38.8427 63.2112 39.4023 62.5215 39.4023Z" fill="#0064E1"/>
<path d="M71.27 39.4023H53.7725C53.0809 39.4023 52.5225 38.8427 52.5225 38.1523C52.5225 37.4626 53.0809 36.9023 53.7725 36.9023H71.27C71.9609 36.9023 72.52 37.4626 72.52 38.1523C72.52 38.8427 71.9597 39.4023 71.27 39.4023Z" fill="#0064E1"/>
<path d="M53.7739 31.8999C51.0164 31.8999 48.7739 29.6575 48.7739 26.8999C48.7739 26.2096 49.3324 25.6499 50.0239 25.6499C50.7148 25.6499 51.2739 26.2096 51.2739 26.8999C51.2739 28.2787 52.3951 29.3999 53.7739 29.3999C55.1527 29.3999 56.2739 28.2787 56.2739 26.8999C56.2739 26.2096 56.8324 25.6499 57.5239 25.6499C58.2148 25.6499 58.7739 26.2096 58.7739 26.8999C58.7739 29.6562 56.5315 31.8999 53.7739 31.8999Z" fill="#0064E1"/>
<path d="M57.5239 28.1499H50.0239C49.3324 28.1499 48.7739 27.5896 48.7739 26.8999C48.7739 26.2096 49.3324 25.6499 50.0239 25.6499H57.5239C58.2148 25.6499 58.7739 26.2096 58.7739 26.8999C58.7739 27.5896 58.2136 28.1499 57.5239 28.1499Z" fill="#0064E1"/>
<path d="M50.0236 28.15C49.8772 28.15 49.7301 28.1238 49.5836 28.0701C48.9372 27.8277 48.6113 27.1063 48.8524 26.4599L52.6024 16.4599C52.8435 15.8124 53.5649 15.4889 54.2125 15.7287C54.8589 15.971 55.1848 16.6925 54.9437 17.3388L51.1937 27.3389C51.0063 27.8399 50.5284 28.15 50.0236 28.15Z" fill="#0064E1"/>
<path d="M57.5236 28.1499C57.0189 28.1499 56.541 27.8398 56.3524 27.3387L52.6024 17.3387C52.3613 16.6923 52.6872 15.9721 53.3336 15.7286C53.9812 15.4899 54.7014 15.8134 54.9437 16.4598L58.6937 26.4598C58.9348 27.1062 58.6089 27.8264 57.9625 28.0699C57.8172 28.1236 57.6701 28.1499 57.5236 28.1499Z" fill="#0064E1"/>
<path d="M71.2666 31.8999C68.509 31.8999 66.2666 29.6575 66.2666 26.8999C66.2666 26.2096 66.8251 25.6499 67.5166 25.6499C68.2075 25.6499 68.7666 26.2096 68.7666 26.8999C68.7666 28.2787 69.8878 29.3999 71.2666 29.3999C72.6454 29.3999 73.7666 28.2787 73.7666 26.8999C73.7666 26.2096 74.3251 25.6499 75.0166 25.6499C75.7075 25.6499 76.2666 26.2096 76.2666 26.8999C76.2666 29.6562 74.0242 31.8999 71.2666 31.8999Z" fill="#0064E1"/>
<path d="M75.0166 28.1499H67.5166C66.8251 28.1499 66.2666 27.5896 66.2666 26.8999C66.2666 26.2096 66.8251 25.6499 67.5166 25.6499H75.0166C75.7075 25.6499 76.2666 26.2096 76.2666 26.8999C76.2666 27.5896 75.7063 28.1499 75.0166 28.1499Z" fill="#0064E1"/>
<path d="M67.5166 28.15C67.3701 28.15 67.2224 28.1238 67.0765 28.0701C66.4301 27.8277 66.1036 27.1063 66.3453 26.4599L70.0953 16.4599C70.3376 15.8124 71.059 15.4889 71.7048 15.7287C72.3512 15.971 72.6777 16.6925 72.4366 17.3388L68.6866 27.3389C68.4986 27.8399 68.0213 28.15 67.5166 28.15Z" fill="#0064E1"/>
<path d="M75.0166 28.1499C74.5112 28.1499 74.0339 27.8398 73.8453 27.3387L70.0953 17.3387C69.8536 16.6923 70.1801 15.9721 70.8265 15.7286C71.4729 15.4899 72.1937 15.8134 72.4366 16.4598L76.1866 26.4598C76.4277 27.1062 76.1012 27.8264 75.4548 28.0699C75.3101 28.1236 75.1624 28.1499 75.0166 28.1499Z" fill="#0064E1"/>
</svg>
