<svg width="80" height="80" viewBox="0 0 80 80" fill="none" xmlns="http://www.w3.org/2000/svg">
<path d="M40 19.6875C39.1376 19.6875 38.4375 20.3876 38.4375 21.25C38.4375 22.1124 39.1376 22.8125 40 22.8125C40.8624 22.8125 41.5625 22.1124 41.5625 21.25C41.5625 20.3876 40.8624 19.6875 40 19.6875Z" fill="#0064E1"/>
<path d="M14.0625 47.8125C14.9249 47.8125 15.625 47.1124 15.625 46.25C15.625 45.3876 14.9249 44.6875 14.0625 44.6875C13.2001 44.6875 12.5 45.3876 12.5 46.25C12.5 47.1124 13.2001 47.8125 14.0625 47.8125Z" fill="#0064E1"/>
<path d="M52.5 4.0625C38.4332 4.0625 26.8878 13.761 25.9949 25.9772C12.5983 26.6492 0 36.3092 0 49.375C0 54.8352 2.16064 60.1257 6.09375 64.3176C6.87195 67.5256 5.92712 70.9259 3.58276 73.2703C3.13599 73.717 3.00232 74.389 3.24402 74.9731C3.48572 75.5566 4.05518 75.9375 4.6875 75.9375C9.14368 75.9375 13.4381 74.1901 16.629 71.1108C19.7375 72.1704 23.7933 72.8125 27.5 72.8125C41.5649 72.8125 53.1091 63.1165 54.0045 50.9027C57.276 50.7574 60.6787 50.1532 63.371 49.2358C66.5619 52.3151 70.8563 54.0625 75.3125 54.0625C75.9448 54.0625 76.5143 53.6816 76.756 53.0981C76.9977 52.514 76.864 51.842 76.4172 51.3953C74.0729 49.0509 73.1281 45.6506 73.9062 42.4426C77.8394 38.2507 80 32.9602 80 27.5C80 13.924 66.4313 4.0625 52.5 4.0625ZM27.5 69.6875C23.8123 69.6875 19.61 68.9636 16.795 67.8436C16.192 67.6031 15.5029 67.7612 15.0641 68.2404C13.1775 70.3027 10.7245 71.7407 8.05176 72.4017C9.52454 69.5801 9.90051 66.2537 9.00452 63.1018C8.93372 62.8534 8.80249 62.6263 8.62244 62.4414C5.07751 58.7903 3.125 54.1498 3.125 49.375C3.125 38.3643 14.2871 29.0625 27.5 29.0625C39.9768 29.0625 50.9375 37.7386 50.9375 49.375C50.9375 60.5756 40.4236 69.6875 27.5 69.6875ZM71.3776 40.5664C71.1975 40.752 71.0663 40.979 70.9955 41.2268C70.0995 44.3787 70.4755 47.7051 71.9482 50.5267C69.2755 49.8663 66.8225 48.4277 64.9359 46.3654C64.4971 45.8868 63.808 45.7281 63.205 45.9686C60.7654 46.9391 57.2852 47.6111 53.9996 47.7734C53.5431 41.8646 50.5957 36.311 45.5566 32.1875H65.9375C66.8005 32.1875 67.5 31.488 67.5 30.625C67.5 29.762 66.8005 29.0625 65.9375 29.0625H40.7562C37.2095 27.2571 33.2269 26.2042 29.1278 25.9833C30.0256 15.4889 40.1654 7.1875 52.5 7.1875C65.7129 7.1875 76.875 16.4893 76.875 27.5C76.875 32.2748 74.9225 36.9153 71.3776 40.5664Z" fill="#0064E1"/>
<path d="M40 44.6875H20.3125C19.4495 44.6875 18.75 45.387 18.75 46.25C18.75 47.113 19.4495 47.8125 20.3125 47.8125H40C40.863 47.8125 41.5625 47.113 41.5625 46.25C41.5625 45.387 40.863 44.6875 40 44.6875Z" fill="#0064E1"/>
<path d="M40 54.0625H14.0625C13.1995 54.0625 12.5 54.762 12.5 55.625C12.5 56.488 13.1995 57.1875 14.0625 57.1875H40C40.863 57.1875 41.5625 56.488 41.5625 55.625C41.5625 54.762 40.863 54.0625 40 54.0625Z" fill="#0064E1"/>
<path d="M65.9375 19.6875H46.25C45.387 19.6875 44.6875 20.387 44.6875 21.25C44.6875 22.113 45.387 22.8125 46.25 22.8125H65.9375C66.8005 22.8125 67.5 22.113 67.5 21.25C67.5 20.387 66.8005 19.6875 65.9375 19.6875Z" fill="#0064E1"/>
</svg>
