<svg width="80" height="80" viewBox="0 0 80 80" fill="none" xmlns="http://www.w3.org/2000/svg">
<g clip-path="url(#clip0)">
<path d="M79.5379 55.6035L75.724 51.8207C75.111 51.2127 74.1216 51.217 73.5138 51.8298C72.9059 52.4426 72.9101 53.4321 73.5229 54.0399L77.3366 57.8227C77.6413 58.1251 78.0393 58.276 78.4371 58.276C78.8391 58.276 79.2412 58.1218 79.5466 57.8137C80.1548 57.2009 80.1507 56.2113 79.5379 55.6035Z" fill="#0064E1"/>
<path d="M71.8378 47.9502C71.2275 47.3399 70.2383 47.3399 69.6277 47.9502L69.625 47.9528C69.0147 48.5631 69.0161 49.5514 69.6264 50.1617C69.9311 50.4666 70.3309 50.6189 70.7306 50.6189C71.1312 50.6189 71.5322 50.4659 71.8376 50.1605C72.448 49.5502 72.448 48.5606 71.8378 47.9502Z" fill="#0064E1"/>
<path d="M58.5146 55.1563L73.6752 39.9959C75.9713 37.6996 75.9713 33.9634 73.6751 31.6671C72.8654 30.8574 71.8765 30.3346 70.8349 30.096C71.1921 29.3282 71.3812 28.4855 71.3812 27.6135C71.3812 26.0404 70.7685 24.5615 69.6563 23.4493C68.784 22.5768 67.6857 22.0134 66.4937 21.8104C67.1648 19.7657 66.6904 17.424 65.0674 15.8012C64.1751 14.909 63.0652 14.3652 61.9069 14.1665C62.101 13.5776 62.2034 12.9557 62.2034 12.3176C62.2034 10.7445 61.5907 9.26555 60.4785 8.15336C59.3662 7.04117 57.8873 6.42852 56.3143 6.42852C55.3154 6.42852 54.3549 6.67633 53.5016 7.14164L53.3509 6.97961C51.3912 4.87367 48.6173 3.66602 45.7409 3.66602H33.469C32.606 3.66602 31.9062 4.36586 31.9062 5.22883V7.2782C31.9062 8.09836 32.0449 8.8968 32.3102 9.64758C31.6034 9.35398 30.8385 9.19977 30.0501 9.19977C28.477 9.19977 26.998 9.81242 25.8857 10.9246C24.262 12.5484 23.788 14.8918 24.4607 16.9371C23.3015 17.1354 22.1901 17.6795 21.297 18.5724C20.1848 19.6848 19.5721 21.1637 19.5721 22.7366C19.5721 23.3735 19.6741 23.9945 19.8674 24.5821C18.6768 24.7857 17.5796 25.3488 16.708 26.2205C14.9148 28.0138 14.5221 30.6857 15.5301 32.8637C14.4627 33.1076 13.4824 33.6451 12.689 34.4384C10.3929 36.7345 10.3929 40.4707 12.689 42.767L15.8068 45.8846L0.457734 61.2334C-0.152578 61.8437 -0.152578 62.8332 0.457734 63.4437C0.762891 63.7487 1.16289 63.9015 1.56273 63.9015C1.96258 63.9015 2.36258 63.7488 2.66773 63.4437L18.1649 47.9465C19.0423 48.4471 20.0379 48.7149 21.0755 48.7149C22.6485 48.7149 24.1274 48.1023 25.2398 46.9899C26.4482 45.7816 27.0198 44.1743 26.9562 42.588C27.0354 42.5913 27.1146 42.5937 27.1938 42.5937C28.7016 42.5935 30.2102 42.0195 31.358 40.8716C32.4702 39.7593 33.0829 38.2804 33.0829 36.7074C33.0829 36.6279 33.0802 36.5488 33.0771 36.4698C33.1554 36.4729 33.2337 36.4754 33.3121 36.4754C34.8201 36.4754 36.3284 35.9013 37.4763 34.7534C38.5885 33.641 39.2012 32.1621 39.2012 30.5891C39.2012 30.5096 39.1985 30.4305 39.1954 30.3515C39.2737 30.3546 39.352 30.3571 39.4304 30.3571C40.9385 30.3571 42.4466 29.783 43.5946 28.6351C45.7521 26.4776 45.8819 23.049 43.9852 20.7379L54.3593 10.3638C54.8813 9.84164 55.5751 9.5543 56.3134 9.5543C57.0516 9.5543 57.7455 9.84164 58.2676 10.3638C58.7896 10.8859 59.0769 11.5796 59.0769 12.3179C59.0769 13.056 58.7896 13.7501 58.2674 14.272L56.7379 15.8015L51.1882 21.3512C50.5779 21.9615 50.5779 22.951 51.1882 23.5615C51.4934 23.8665 51.8934 24.0193 52.2932 24.0193C52.693 24.0193 53.093 23.8666 53.3982 23.5615L58.9479 18.0118C60.0252 16.9343 61.7785 16.9341 62.8562 18.0116C63.9337 19.0893 63.9337 20.8424 62.8562 21.9201L61.3265 23.4498L57.3065 27.4698C56.6962 28.0801 56.6962 29.0696 57.3065 29.6801C57.6116 29.9851 58.0116 30.1379 58.4115 30.1379C58.8113 30.1379 59.2113 29.9852 59.5165 29.6801L63.5365 25.6601C64.0585 25.1379 64.7524 24.8505 65.4905 24.8505C66.2288 24.8505 66.9227 25.1379 67.4448 25.6601C67.9668 26.1821 68.2541 26.8759 68.2541 27.6141C68.2541 28.3523 67.9668 29.0463 67.4446 29.5682L65.3451 31.6677L63.4246 33.5882C62.8143 34.1985 62.8143 35.188 63.4246 35.7985C63.7298 36.1035 64.1298 36.2563 64.5296 36.2563C64.9295 36.2563 65.3294 36.1037 65.6346 35.7985L67.5565 33.8766C68.6341 32.8009 70.3863 32.801 71.4633 33.878C72.541 34.9555 72.541 36.7088 71.4633 37.7865L56.3027 52.9469C52.4959 56.754 47.4363 58.9579 42.0562 59.1532C41.6607 59.1676 41.2851 59.3315 41.0057 59.6121L27.0007 73.669C26.3915 74.2804 26.3932 75.2699 27.0048 75.8791C27.3096 76.1829 27.7087 76.3349 28.1077 76.3349C28.5085 76.3349 28.9096 76.1816 29.2148 75.8751L39.5159 65.536C42.1324 67.2146 45.2096 68.0127 48.3385 67.8059L56.4007 75.8682C56.7058 76.1732 57.1059 76.326 57.5057 76.326C57.9057 76.326 58.3055 76.1734 58.6107 75.8682C59.221 75.2579 59.221 74.2684 58.6107 73.6579L50.0388 65.0851C49.7143 64.7607 49.2634 64.5949 48.806 64.6324L48.3105 64.673C46.0235 64.8605 43.7629 64.3596 41.7891 63.2535L42.7935 62.2455C48.7335 61.8791 54.2948 59.3763 58.5146 55.1563ZM23.0298 44.7799C22.5077 45.3021 21.8137 45.5895 21.0757 45.5895C20.3374 45.5895 19.6435 45.3021 19.1216 44.7799L14.8988 40.5573C13.8213 39.4798 13.8213 37.7265 14.8988 36.6488C15.4209 36.1266 16.1149 35.8393 16.853 35.8393C17.5912 35.8393 18.2852 36.1266 18.8071 36.6488L23.0299 40.8715C24.1073 41.949 24.1073 43.7023 23.0298 44.7799ZM29.1484 38.6613C28.0707 39.7388 26.3171 39.7388 25.2399 38.6613L21.0171 34.4385L18.9174 32.3388C17.8399 31.2613 17.8399 29.508 18.9174 28.4305C19.4395 27.9084 20.1335 27.621 20.8715 27.621C21.6098 27.621 22.3037 27.9084 22.8255 28.4305L29.1479 34.7529C29.1479 34.7529 29.1479 34.7529 29.148 34.7529C29.6702 35.2751 29.9576 35.969 29.9576 36.7071C29.9576 37.4452 29.6702 38.1393 29.1484 38.6613ZM35.2666 32.5429C34.189 33.6202 32.4355 33.6204 31.3582 32.5429L23.5062 24.6909C22.9841 24.1688 22.6968 23.4751 22.6968 22.7368C22.6968 21.9987 22.9841 21.3046 23.5063 20.7827C24.0451 20.244 24.7529 19.9746 25.4604 19.9746C26.1676 19.9746 26.8746 20.2437 27.4132 20.7815L30.992 24.3602L35.2663 28.6346H35.2665C35.7884 29.1566 36.0757 29.8504 36.0757 30.5887C36.076 31.327 35.7887 32.021 35.2666 32.5429ZM41.3851 26.4245C40.3076 27.502 38.5543 27.502 37.4768 26.4245L29.6248 18.5724C29.624 18.5716 29.623 18.5709 29.6221 18.5699L28.0951 17.0429C27.0176 15.9652 27.0176 14.2121 28.0951 13.1345C28.6338 12.5955 29.3416 12.3262 30.0493 12.3262C30.757 12.3262 31.4648 12.5955 32.0034 13.1345L41.3848 22.5159C41.9069 23.0379 42.1943 23.7318 42.1943 24.4699C42.1944 25.2084 41.9073 25.9026 41.3851 26.4245ZM41.796 18.507L37.5035 14.2145C37.9902 14.3184 38.4907 14.3735 39.0001 14.3734C39.0115 14.3734 39.023 14.3734 39.0346 14.3734L43.3234 14.3532C44.1863 14.3491 44.8829 13.6462 44.8788 12.783C44.8748 11.9224 44.1759 11.2276 43.3162 11.2276C43.3137 11.2276 43.3112 11.2276 43.3087 11.2276L39.0199 11.2477C39.0134 11.2477 39.0071 11.2477 39.0005 11.2477C37.9438 11.2477 36.9499 10.8376 36.2005 10.0918C35.4465 9.34117 35.0313 8.34211 35.0313 7.27805V6.79148H45.7404C47.7521 6.79148 49.6919 7.63602 51.0626 9.10883L51.1262 9.17711L41.796 18.507Z" fill="#0064E1"/>
</g>
<defs>
<clipPath id="clip0">
</clipPath>
</defs>
</svg>
