<svg width="80" height="80" viewBox="0 0 80 80" fill="none" xmlns="http://www.w3.org/2000/svg">
<path d="M64.4368 5.625H32.0046C31.1417 5.625 30.4421 6.32469 30.4421 7.1875C30.4421 8.05031 31.1417 8.75 32.0046 8.75H64.4368C65.2998 8.75 65.9993 8.05031 65.9993 7.1875C65.9993 6.32469 65.2998 5.625 64.4368 5.625Z" fill="#0064E1"/>
<path d="M16.1618 6.08281C15.8712 5.79219 15.4681 5.625 15.0571 5.625C14.6446 5.625 14.2431 5.79203 13.9524 6.08281C13.6618 6.37344 13.4946 6.77656 13.4946 7.1875C13.4946 7.59844 13.6618 8.00156 13.9524 8.29203C14.2431 8.58281 14.6446 8.75 15.0571 8.75C15.4681 8.75 15.8712 8.58281 16.1618 8.29203C16.4524 8.00156 16.6196 7.59844 16.6196 7.1875C16.6196 6.77656 16.4526 6.37344 16.1618 6.08281Z" fill="#0064E1"/>
<path d="M10.4196 6.08281C10.129 5.79219 9.72588 5.625 9.31494 5.625C8.904 5.625 8.50088 5.79203 8.21025 6.08281C7.91963 6.37344 7.75244 6.77656 7.75244 7.1875C7.75244 7.59844 7.91963 8.00156 8.21025 8.29203C8.50088 8.58281 8.90416 8.75 9.31494 8.75C9.72588 8.75 10.129 8.58281 10.4196 8.29203C10.7103 8.00156 10.8774 7.59844 10.8774 7.1875C10.8774 6.77656 10.7103 6.37344 10.4196 6.08281Z" fill="#0064E1"/>
<path d="M21.904 6.08281C21.6134 5.79219 21.2103 5.625 20.7993 5.625C20.3868 5.625 19.9853 5.79203 19.6931 6.08281C19.4024 6.37344 19.2368 6.77656 19.2368 7.1875C19.2368 7.59844 19.4024 8.00156 19.6931 8.29203C19.9853 8.58281 20.3868 8.75 20.7993 8.75C21.2103 8.75 21.6134 8.58281 21.904 8.29203C22.1946 8.00156 22.3618 7.59844 22.3618 7.1875C22.3618 6.77656 22.1946 6.37344 21.904 6.08281Z" fill="#0064E1"/>
<path d="M75.3115 28.4752H69.7057C68.7437 26.8869 66.9992 25.8231 65.0106 25.8231H61.8411C61.1884 23.8975 59.3636 22.508 57.2203 22.508C55.077 22.508 53.2522 23.8975 52.5993 25.8231H49.4298C47.4412 25.8231 45.6967 26.8869 44.7347 28.4752H39.2164C36.6317 28.4752 34.5289 30.578 34.5289 33.1627V35.5414C33.7004 34.9634 32.7428 34.5498 31.6975 34.3548L30.3181 34.0975C30.6158 33.2719 30.7789 32.3825 30.7789 31.4556V27.3886C30.7789 23.0808 27.2742 19.5761 22.9664 19.5761C18.6586 19.5761 15.1539 23.0808 15.1539 27.3886V31.4556C15.1539 32.3825 15.317 33.2719 15.6147 34.0975L14.2354 34.3547C10.784 34.9983 8.27888 38.0137 8.27888 41.5247V50C8.27888 50.8628 8.97841 51.5625 9.84138 51.5625H16.7164C17.5793 51.5625 18.2789 50.8628 18.2789 50C18.2789 49.1372 17.5793 48.4375 16.7164 48.4375H11.4039V41.5248C11.4039 39.5181 12.8356 37.7947 14.8084 37.4267L17.4104 36.9414C18.8278 38.3767 20.7947 39.2681 22.9664 39.2681C25.1381 39.2681 27.105 38.3767 28.5225 36.9412L31.1245 37.4266C33.0972 37.7944 34.5289 39.518 34.5289 41.5247V48.4375H29.2164C28.3534 48.4375 27.6539 49.1372 27.6539 50C27.6539 50.8628 28.3534 51.5625 29.2164 51.5625H34.5289V58.4375H6.56372C4.66825 58.4375 3.12622 56.8955 3.12622 55V14.3742C3.132 14.3742 3.13747 14.375 3.14325 14.375H70.6262V24.0706C70.6262 24.9334 71.3258 25.6331 72.1887 25.6331C73.0517 25.6331 73.7512 24.9334 73.7512 24.0706V6.5625C73.7512 2.94391 70.8073 0 67.1887 0H6.56372C2.94513 0 0.0012207 2.94391 0.0012207 6.5625V55C0.0012207 58.6186 2.94513 61.5625 6.56372 61.5625H34.5292V75.3125C34.5292 77.8972 36.632 80 39.2167 80H75.3117C77.8964 80 79.9992 77.8972 79.9992 75.3125V33.1627C79.999 30.578 77.8962 28.4752 75.3115 28.4752ZM27.6542 31.4556C27.6542 34.0403 25.5514 36.1431 22.9667 36.1431C20.382 36.1431 18.2792 34.0403 18.2792 31.4556V27.3886C18.2792 24.8039 20.382 22.7011 22.9667 22.7011C25.5514 22.7011 27.6542 24.8039 27.6542 27.3886V31.4556ZM3.12622 6.5625C3.12622 4.66703 4.66825 3.125 6.56372 3.125H67.1887C69.0842 3.125 70.6262 4.66703 70.6262 6.5625V11.25H3.14325C3.13747 11.25 3.13185 11.2508 3.12622 11.2508V6.5625ZM47.0697 31.3084C47.0697 30.007 48.1284 28.9483 49.43 28.9483H53.9053C54.7683 28.9483 55.4678 28.2486 55.4678 27.3858C55.4678 26.4194 56.254 25.6331 57.2203 25.6331C58.1865 25.6331 58.9728 26.4194 58.9728 27.3858C58.9728 28.2486 59.6723 28.9483 60.5353 28.9483H65.0106C66.3122 28.9483 67.3709 30.007 67.3709 31.3084V33.1202H47.0697V31.3084ZM76.8743 75.3125H76.874C76.874 76.1741 76.1731 76.875 75.3115 76.875H39.2167C38.3551 76.875 37.6542 76.1741 37.6542 75.3125V50V41.5248V33.1627C37.6542 32.3011 38.3551 31.6002 39.2167 31.6002H43.9448V33.5839C43.9448 35.0513 45.1387 36.245 46.6061 36.245H67.835C69.3023 36.245 70.4962 35.0511 70.4962 33.5839V31.6002H75.3118C76.1734 31.6002 76.8743 32.3011 76.8743 33.1627V75.3125Z" fill="#0064E1"/>
<path d="M24.0712 48.8953C23.7806 48.6047 23.3775 48.4375 22.9666 48.4375C22.5556 48.4375 22.1525 48.6045 21.8619 48.8953C21.5712 49.1859 21.4041 49.5891 21.4041 50C21.4041 50.4109 21.5712 50.8141 21.8619 51.1045C22.1525 51.3952 22.5556 51.5625 22.9666 51.5625C23.3775 51.5625 23.7808 51.3953 24.0712 51.1045C24.3619 50.8141 24.5291 50.4109 24.5291 50C24.5291 49.5891 24.3619 49.1859 24.0712 48.8953Z" fill="#0064E1"/>
<path d="M71.4072 43.2283H63.2561C62.3931 43.2283 61.6936 43.928 61.6936 44.7908C61.6936 45.6536 62.3931 46.3533 63.2561 46.3533H71.4072C72.2702 46.3533 72.9697 45.6536 72.9697 44.7908C72.9697 43.928 72.2702 43.2283 71.4072 43.2283Z" fill="#0064E1"/>
<path d="M71.4072 49.4783H57.8135C56.9505 49.4783 56.251 50.178 56.251 51.0408C56.251 51.9036 56.9505 52.6033 57.8135 52.6033H71.4072C72.2702 52.6033 72.9697 51.9036 72.9697 51.0408C72.9697 50.178 72.2702 49.4783 71.4072 49.4783Z" fill="#0064E1"/>
<path d="M58.9182 43.6861C58.6275 43.3955 58.2244 43.2283 57.8135 43.2283C57.4025 43.2283 56.9994 43.3953 56.7088 43.6861C56.4182 43.9767 56.251 44.3798 56.251 44.7908C56.251 45.2017 56.4182 45.6048 56.7088 45.8953C56.9994 46.1861 57.4024 46.3533 57.8135 46.3533C58.2244 46.3533 58.6275 46.1861 58.9182 45.8953C59.2088 45.6048 59.376 45.2017 59.376 44.7908C59.376 44.3798 59.2088 43.9767 58.9182 43.6861Z" fill="#0064E1"/>
<path d="M52.577 61.146C51.967 60.536 50.9776 60.536 50.3675 61.146L46.732 64.7816L44.5776 62.6272C43.9675 62.0172 42.9781 62.0172 42.3678 62.6272C41.7576 63.2374 41.7576 64.2268 42.3678 64.8371L45.627 68.0963C45.92 68.3893 46.3175 68.5539 46.7318 68.5539C47.1462 68.5539 47.5437 68.3893 47.8367 68.0963L52.577 63.3558C53.1871 62.7457 53.1871 61.7563 52.577 61.146Z" fill="#0064E1"/>
<path d="M52.5773 45.1958C51.9671 44.5858 50.9778 44.5858 50.3676 45.1958L46.7321 48.8314L44.5778 46.6769C43.9678 46.067 42.9782 46.0669 42.3681 46.6769C41.7579 47.287 41.7578 48.2764 42.3681 48.8867L45.6273 52.1461C45.9203 52.4391 46.3178 52.6037 46.7321 52.6037C47.1465 52.6037 47.544 52.4391 47.837 52.1461L52.5773 47.4056C53.1874 46.7955 53.1874 45.8061 52.5773 45.1958Z" fill="#0064E1"/>
<path d="M65.9646 59.1787H57.8135C56.9505 59.1787 56.251 59.8784 56.251 60.7412C56.251 61.604 56.9505 62.3037 57.8135 62.3037H65.9646C66.8275 62.3037 67.5271 61.604 67.5271 60.7412C67.5271 59.8784 66.8275 59.1787 65.9646 59.1787Z" fill="#0064E1"/>
<path d="M71.4072 65.4287H57.8135C56.9505 65.4287 56.251 66.1284 56.251 66.9912C56.251 67.854 56.9505 68.5537 57.8135 68.5537H71.4072C72.2702 68.5537 72.9697 67.854 72.9697 66.9912C72.9697 66.1284 72.2702 65.4287 71.4072 65.4287Z" fill="#0064E1"/>
<path d="M72.5119 59.636C72.2213 59.3454 71.818 59.1782 71.4072 59.1782C70.9963 59.1782 70.5932 59.3453 70.3025 59.636C70.0119 59.9267 69.8447 60.3296 69.8447 60.7423C69.8447 61.1532 70.0119 61.5563 70.3025 61.8468C70.5932 62.1374 70.9963 62.3048 71.4072 62.3048C71.8182 62.3048 72.2213 62.1376 72.5119 61.8468C72.8025 61.5548 72.9697 61.1532 72.9697 60.7423C72.9697 60.3296 72.8025 59.9282 72.5119 59.636Z" fill="#0064E1"/>
</svg>
