<svg width="80" height="80" viewBox="0 0 80 80" fill="none" xmlns="http://www.w3.org/2000/svg">
<g clip-path="url(#clip0)">
<path d="M35.9949 52.2455C36.6046 51.6346 36.6046 50.6452 35.9949 50.0342C35.3839 49.4251 34.3952 49.4251 33.7842 50.0342C33.1745 50.6452 33.1745 51.6346 33.7842 52.2455C34.3952 52.8547 35.3839 52.8547 35.9949 52.2455Z" fill="#0064E1"/>
<path d="M36.5637 15.4692V18.5942C36.5637 23.7737 40.7593 27.9692 45.9387 27.9692C51.1084 27.9692 55.3143 23.7639 55.3143 18.5942V15.4692C56.1774 15.4692 56.8768 14.7698 56.8768 13.9067C56.8768 13.0437 56.1774 12.3442 55.3143 12.3442H52.1893C51.3263 12.3442 50.6268 13.0437 50.6268 13.9067C50.6268 14.7698 51.3263 15.4692 52.1893 15.4692V18.5942C52.1893 22.0403 49.3854 24.8442 45.9387 24.8442C42.4872 24.8442 39.6887 22.047 39.6887 18.5942V15.4692C40.5518 15.4692 41.2512 14.7698 41.2512 13.9067C41.2512 13.0437 40.5518 12.3442 39.6887 12.3442H36.5637C35.7007 12.3442 35.0012 13.0437 35.0012 13.9067C35.0012 14.7698 35.7007 15.4692 36.5637 15.4692Z" fill="#0064E1"/>
<path d="M18.1592 76.7096C18.4644 77.0142 18.8635 77.1661 19.2633 77.1661C19.6631 77.1661 20.0629 77.0135 20.368 76.709L25.166 71.911C26.7291 70.3491 27.4817 68.2098 27.2644 66.048L28.985 64.3866C30.3503 63.0707 32.1454 62.3456 34.0387 62.3456H54.6112C58.2965 62.3456 61.7798 60.9302 64.4189 58.36C64.458 58.3221 64.4946 58.2825 64.5294 58.2404L78.5272 41.4313C80.7513 38.7994 80.4187 34.848 77.7844 32.6215C75.1672 30.4156 71.2451 30.733 69.0143 33.3209L67.5024 34.8846V4.375C67.5024 3.51196 66.8024 2.8125 65.9399 2.8125H25.7819C24.9194 2.8125 24.2194 3.51196 24.2194 4.375V39.3829C18.1683 40.6531 13.3691 44.4092 10.7843 49.8999C8.74573 49.7943 6.75781 50.5438 5.28259 52.0209L0.460207 56.8195C0.166017 57.1124 0.000612035 57.5104 1.68319e-06 57.9254C-0.000608668 58.3411 0.164797 58.739 0.458376 59.0326L18.1592 76.7096ZM64.3774 5.9375V38.1158L59.8553 42.7911C58.6914 41.3611 56.9177 40.47 55.0018 40.47H36.8854C36.7853 40.47 36.6766 40.4468 36.5674 40.4028C34.1333 39.4104 31.5558 38.9075 28.9075 38.9075C28.3844 38.9075 27.8632 38.9264 27.345 38.9606V5.9375H64.3774ZM26.0059 42.2382C29.1669 41.781 32.3279 42.0496 35.3937 43.299C35.8807 43.4955 36.3831 43.5956 36.8854 43.5956H55.0018C56.6962 43.5956 58.1268 44.9774 58.1268 46.7206C58.1268 48.4436 56.7249 49.8456 55.0018 49.8456H41.4075C40.545 49.8456 39.845 50.545 39.845 51.4081C39.845 52.2711 40.545 52.9706 41.4075 52.9706H55.0018C58.4485 52.9706 61.2518 50.1666 61.2518 46.7206C61.2518 46.4447 61.2317 46.1707 61.1963 45.9003C61.5222 45.5664 70.9668 35.7983 71.2939 35.4596C71.3177 35.4346 71.3416 35.4089 71.3635 35.3827C72.4768 34.068 74.4537 33.902 75.769 35.0104C77.0856 36.123 77.2522 38.0988 76.1328 39.4232L62.182 56.1761C60.1367 58.1403 57.4512 59.2206 54.6112 59.2206H34.0387C31.3318 59.2206 28.7671 60.2557 26.8152 62.1375L26.1261 62.8027C25.8502 62.3785 25.5292 61.9824 25.1666 61.6205L15.5695 52.0233C15.0568 51.5106 14.4751 51.0846 13.8458 50.7483C16.2329 46.04 20.4968 43.0389 26.0059 42.2382ZM7.49024 54.2328C9.13208 52.5885 11.756 52.6288 13.3594 54.2334L22.9578 63.8312C24.5667 65.437 24.5953 68.064 22.9572 69.7003L19.2621 73.3948L3.77564 57.9291L7.49024 54.2328Z" fill="#0064E1"/>
</g>
<defs>
<clipPath id="clip0">
</clipPath>
</defs>
</svg>
