<svg width="80" height="80" viewBox="0 0 80 80" fill="none" xmlns="http://www.w3.org/2000/svg">
<g clip-path="url(#clip0)">
<path d="M58.8779 55.6238C58.1879 55.6238 57.5327 55.7743 56.9416 56.0421C56.2363 54.3305 54.5507 53.1222 52.5876 53.1222C51.3796 53.1222 50.2768 53.5799 49.4424 54.3305C48.608 53.5799 47.5052 53.1222 46.2972 53.1222C45.7422 53.1222 45.2096 53.2194 44.7146 53.3968V45.9508C44.7146 43.355 42.6027 41.2432 40.0069 41.2432C37.4111 41.2432 35.2993 43.355 35.2993 45.9508V65.633L34.4011 64.1594C33.0151 61.8849 30.1222 61.1466 27.8158 62.4785C25.6219 63.745 24.7661 66.5243 25.8677 68.8055L30.8454 79.1158C31.1149 79.6739 31.6727 79.9994 32.2536 79.9994C32.4815 79.9994 32.7129 79.9494 32.9318 79.8436C33.709 79.4685 34.0347 78.5344 33.6596 77.7572L28.6819 67.4469C28.288 66.6313 28.594 65.6378 29.3785 65.1849C30.2032 64.7088 31.2372 64.9727 31.7327 65.7858L35.5276 72.0124C35.8921 72.6103 36.61 72.8928 37.2841 72.7036C37.9583 72.5144 38.4243 71.8996 38.4243 71.1993V45.9508C38.4243 45.0782 39.1343 44.3682 40.0069 44.3682C40.8796 44.3682 41.5896 45.0782 41.5896 45.9508V65.4518C41.5896 66.3147 42.2891 67.0143 43.1521 67.0143C44.0151 67.0143 44.7146 66.3147 44.7146 65.4518V57.8299C44.7146 56.9572 45.4246 56.2472 46.2972 56.2472C47.1699 56.2472 47.8799 56.9572 47.8799 57.8299V58.9541V65.4516C47.8799 66.3146 48.5794 67.0141 49.4424 67.0141C50.3054 67.0141 51.0049 66.3146 51.0049 65.4516V58.9541V57.8299C51.0049 56.9572 51.7149 56.2472 52.5876 56.2472C53.4602 56.2472 54.1702 56.9572 54.1702 57.8299V60.3314V62.3461V65.4518C54.1702 66.3147 54.8697 67.0143 55.7327 67.0143C56.5957 67.0143 57.2952 66.3147 57.2952 65.4518V62.3461V60.3314C57.2952 59.4588 58.0052 58.7488 58.8779 58.7488C59.7505 58.7488 60.4605 59.4588 60.4605 60.3314V78.4363C60.4605 79.2993 61.16 79.9988 62.023 79.9988C62.886 79.9988 63.5855 79.2993 63.5855 78.4363V60.3314C63.5855 57.7358 61.4736 55.6238 58.8779 55.6238Z" fill="#0064E1"/>
<path d="M40.0068 35.9368C34.4848 35.9368 29.9924 40.4293 29.9924 45.9513C29.9924 46.8143 30.692 47.5138 31.5549 47.5138C32.4179 47.5138 33.1174 46.8143 33.1174 45.9513C33.1174 42.1524 36.2081 39.0618 40.007 39.0618C43.8059 39.0618 46.8963 42.1524 46.8963 45.9513C46.8963 46.8143 47.5959 47.5138 48.4588 47.5138C49.3218 47.5138 50.0213 46.8143 50.0213 45.9513C50.0213 40.4291 45.5288 35.9368 40.0068 35.9368Z" fill="#0064E1"/>
<path d="M54.4344 39.9049C51.9896 34.0772 46.3264 30.3118 40.0071 30.3118C31.3835 30.3118 24.3677 37.3275 24.3677 45.9513C24.3677 46.8143 25.0672 47.5138 25.9302 47.5138C26.7931 47.5138 27.4924 46.8143 27.4924 45.9513C27.4924 39.0508 33.1064 33.4368 40.0069 33.4368C45.0641 33.4368 49.596 36.4502 51.5527 41.1138C51.8866 41.9096 52.8024 42.2841 53.598 41.9502C54.3938 41.6163 54.7682 40.7005 54.4344 39.9049Z" fill="#0064E1"/>
<path d="M54.0839 44.335C54.0816 44.335 54.0794 44.335 54.077 44.335C53.2142 44.3387 52.5177 45.0412 52.5213 45.9042V45.9511C52.5213 46.814 53.2208 47.5136 54.0838 47.5136C54.9467 47.5136 55.6463 46.814 55.6463 45.9511V45.8907C55.6425 45.0303 54.9438 44.335 54.0839 44.335Z" fill="#0064E1"/>
<path d="M39.9978 0.000244141C36.81 0.000244141 34.2166 2.59368 34.2166 5.78149C34.2166 8.4279 36.0044 10.6631 38.4353 11.3465V20.0212C38.4353 20.8842 39.1348 21.5837 39.9978 21.5837C40.8608 21.5837 41.5603 20.8842 41.5603 20.0212V11.3467C43.9911 10.6632 45.7791 8.42806 45.7791 5.78165C45.7791 2.59384 43.1856 0.000244141 39.9978 0.000244141ZM39.9978 8.4379C38.5331 8.4379 37.3416 7.24634 37.3416 5.78165C37.3416 4.31696 38.5331 3.1254 39.9978 3.1254C41.4625 3.1254 42.6541 4.31696 42.6541 5.78165C42.6541 7.24634 41.4625 8.4379 39.9978 8.4379Z" fill="#0064E1"/>
<path d="M74.2188 34.218C71.5724 34.218 69.3374 36.006 68.6538 38.4368H59.9775C59.1146 38.4368 58.415 39.1363 58.415 39.9993C58.415 40.8622 59.1146 41.5618 59.9775 41.5618H68.6538C69.3374 43.9925 71.5724 45.7805 74.2188 45.7805C77.4066 45.7805 80 43.1871 80 39.9993C80 36.8113 77.4066 34.218 74.2188 34.218ZM74.2188 42.6554C72.7541 42.6554 71.5625 41.4638 71.5625 39.9991C71.5625 38.5344 72.7541 37.3429 74.2188 37.3429C75.6835 37.3429 76.875 38.5344 76.875 39.9991C76.875 41.4638 75.6835 42.6554 74.2188 42.6554Z" fill="#0064E1"/>
<path d="M29.1491 26.9381L20.8451 18.6341C21.3269 17.7791 21.5849 16.8108 21.5849 15.8025C21.5849 14.2583 20.9835 12.8064 19.8916 11.7145C18.7998 10.6225 17.3479 10.0212 15.8037 10.0212C14.2594 10.0212 12.8077 10.6228 11.7157 11.7145C9.46163 13.9686 9.46163 17.6364 11.7157 19.8905C12.8077 20.9825 14.2594 21.5837 15.8038 21.5837C16.8123 21.5837 17.7804 21.3258 18.6354 20.8439L26.9394 29.148C27.2446 29.453 27.6444 29.6056 28.0443 29.6056C28.4441 29.6056 28.8441 29.453 29.1491 29.148C29.7593 28.538 29.7593 27.5484 29.1491 26.9381ZM17.6824 17.6806C17.6823 17.6808 17.6821 17.6808 17.6821 17.6809C17.6819 17.6811 17.6819 17.6812 17.6818 17.6814C17.1801 18.1828 16.5133 18.4591 15.804 18.4591C15.0944 18.4591 14.4274 18.1828 13.9257 17.6811C12.8899 16.6453 12.8899 14.9601 13.9255 13.9245C14.4273 13.4228 15.0941 13.1466 15.8038 13.1466C16.5135 13.1466 17.1804 13.4228 17.6821 13.9245C18.1838 14.4262 18.4601 15.0931 18.4601 15.8028C18.4601 16.512 18.184 17.1789 17.6824 17.6806Z" fill="#0064E1"/>
<path d="M41.1032 23.8946C40.8126 23.604 40.4095 23.4368 39.9985 23.4368C39.586 23.4368 39.1845 23.604 38.8938 23.8946C38.6017 24.1852 38.436 24.5883 38.436 24.9993C38.436 25.4102 38.6017 25.8133 38.8938 26.104C39.1845 26.3946 39.5876 26.5618 39.9985 26.5618C40.4095 26.5618 40.8126 26.3946 41.1032 26.104C41.3938 25.8133 41.561 25.4102 41.561 24.9993C41.561 24.5883 41.3938 24.185 41.1032 23.8946Z" fill="#0064E1"/>
<path d="M68.2843 11.7145C67.1925 10.6225 65.7406 10.0212 64.1964 10.0212C62.6522 10.0212 61.2003 10.6226 60.1084 11.7145C59.0164 12.8064 58.4151 14.2583 58.4151 15.8025C58.4151 16.8109 58.6731 17.7791 59.155 18.6341L49.6764 28.1126C49.0662 28.7228 49.0662 29.7122 49.6764 30.3225C49.9815 30.6276 50.3815 30.7801 50.7814 30.7801C51.1812 30.7801 51.5812 30.6276 51.8862 30.3225L61.3648 20.8439C62.2198 21.3259 63.1879 21.5837 64.1964 21.5837C65.7406 21.5837 67.1925 20.9823 68.2843 19.8905C70.5384 17.6366 70.5384 13.9687 68.2843 11.7145ZM66.0748 17.6809C65.5731 18.1826 64.9062 18.4589 64.1965 18.4589C63.4872 18.4589 62.8204 18.1828 62.3187 17.6812C62.3186 17.6811 62.3186 17.6809 62.3184 17.6809C62.3182 17.6808 62.3181 17.6806 62.3179 17.6806C61.8165 17.1789 61.5403 16.5122 61.5403 15.8028C61.5401 15.0931 61.8165 14.4262 62.3182 13.9244C62.82 13.4226 63.4868 13.1464 64.1965 13.1464C64.9062 13.1464 65.5731 13.4226 66.0748 13.9244C67.1104 14.96 67.1104 16.645 66.0748 17.6809Z" fill="#0064E1"/>
<path d="M20 38.4368H11.3462C10.6627 36.006 8.42766 34.218 5.78125 34.218C2.59344 34.218 0 36.8115 0 39.9993C0 43.1871 2.59344 45.7805 5.78125 45.7805C8.42766 45.7805 10.6627 43.9925 11.3462 41.5618H20C20.863 41.5618 21.5625 40.8622 21.5625 39.9993C21.5625 39.1363 20.863 38.4368 20 38.4368ZM5.78125 42.6554C4.31656 42.6554 3.125 41.4638 3.125 39.9991C3.125 38.5344 4.31656 37.3429 5.78125 37.3429C7.24594 37.3429 8.4375 38.5344 8.4375 39.9991C8.4375 41.4638 7.24594 42.6554 5.78125 42.6554Z" fill="#0064E1"/>
</g>
<defs>
<clipPath id="clip0">
</clipPath>
</defs>
</svg>
