<svg width="25" height="25" viewBox="0 0 25 25" fill="none" xmlns="http://www.w3.org/2000/svg">
<path d="M0 25L2.15 18.5504C1.05905 16.7155 0.431034 14.5741 0.431034 12.2845C0.431034 5.5 5.93103 0 12.7155 0C19.5 0 25 5.5 25 12.2845C25 19.069 19.5 24.569 12.7155 24.569C10.6513 24.569 8.70733 24.0573 7 23.1582L0 25Z" fill="#2CB742"/>
<path d="M20.5531 16.3729C19.9859 15.3009 17.8941 14.0751 17.8941 14.0751C17.4208 13.8053 16.8497 13.7751 16.5799 14.2561C16.5799 14.2561 15.9001 15.0712 15.7273 15.1884C14.9376 15.7234 14.2062 15.7027 13.4678 14.9643L11.7519 13.2484L10.0359 11.5324C9.29754 10.794 9.27685 10.0626 9.81177 9.27293C9.92901 9.10008 10.7441 8.42034 10.7441 8.42034C11.2251 8.15008 11.195 7.57939 10.9251 7.10611C10.9251 7.10611 9.69927 5.0143 8.62729 4.44706C8.17125 4.20568 7.61134 4.29017 7.24668 4.65482L6.48892 5.41258C4.08504 7.81646 5.26866 10.5303 7.67254 12.9341L9.86953 15.1311L12.0665 17.3281C14.4704 19.732 17.1842 20.9156 19.5881 18.5117L20.3458 17.754C20.7105 17.3884 20.7945 16.8285 20.5531 16.3729Z" fill="white"/>
</svg>
