<svg width="270" height="60" viewBox="0 0 270 60" fill="none" xmlns="http://www.w3.org/2000/svg">
<g filter="url(#filter0_i)">
<rect width="270" height="60" rx="7" fill="url(#paint0_linear)"/>
<path d="M75.846 29.9355C75.846 31.1895 75.6292 32.291 75.1956 33.2402C74.762 34.1836 74.1409 34.9102 73.3323 35.4199C72.5296 35.9238 71.6038 36.1758 70.555 36.1758C69.5179 36.1758 68.5921 35.9238 67.7776 35.4199C66.969 34.9102 66.3421 34.1865 65.8968 33.249C65.4573 32.3115 65.2346 31.2305 65.2288 30.0059V29.2852C65.2288 28.0371 65.4485 26.9355 65.888 25.9805C66.3333 25.0254 66.9573 24.2959 67.76 23.792C68.5686 23.2822 69.4944 23.0273 70.5374 23.0273C71.5804 23.0273 72.5032 23.2793 73.3059 23.7832C74.1145 24.2812 74.7386 25.002 75.178 25.9453C75.6175 26.8828 75.8401 27.9756 75.846 29.2236V29.9355ZM73.6223 29.2676C73.6223 27.8496 73.3528 26.7627 72.8138 26.0068C72.2805 25.251 71.5218 24.873 70.5374 24.873C69.5764 24.873 68.8235 25.251 68.2786 26.0068C67.7395 26.7568 67.4641 27.8203 67.4524 29.1973V29.9355C67.4524 31.3418 67.7249 32.4287 68.2698 33.1963C68.8206 33.9639 69.5823 34.3477 70.555 34.3477C71.5393 34.3477 72.2952 33.9727 72.8225 33.2227C73.3557 32.4727 73.6223 31.377 73.6223 29.9355V29.2676ZM81.761 34.4707C82.2942 34.4707 82.7366 34.3154 83.0882 34.0049C83.4397 33.6943 83.6272 33.3105 83.6507 32.8535H85.6634C85.6399 33.4453 85.4554 33.999 85.1096 34.5146C84.7639 35.0244 84.2952 35.4287 83.7034 35.7275C83.1116 36.0264 82.4729 36.1758 81.7874 36.1758C80.4573 36.1758 79.4026 35.7451 78.6233 34.8838C77.844 34.0225 77.4544 32.833 77.4544 31.3154V31.0957C77.4544 29.6484 77.8411 28.4912 78.6145 27.624C79.388 26.751 80.4427 26.3145 81.7786 26.3145C82.9095 26.3145 83.8294 26.6455 84.5384 27.3076C85.2532 27.9639 85.6282 28.8281 85.6634 29.9004H83.6507C83.6272 29.3555 83.4397 28.9072 83.0882 28.5557C82.7425 28.2041 82.3001 28.0283 81.761 28.0283C81.0696 28.0283 80.5364 28.2803 80.1614 28.7842C79.7864 29.2822 79.596 30.041 79.5901 31.0605V31.4033C79.5901 32.4346 79.7747 33.2051 80.1438 33.7148C80.5188 34.2188 81.0579 34.4707 81.761 34.4707ZM94.76 28.1865H91.6751V36H89.5393V28.1865H86.4895V26.4902H94.76V28.1865ZM101.73 36C101.636 35.8184 101.554 35.5225 101.484 35.1123C100.804 35.8213 99.972 36.1758 98.9876 36.1758C98.0325 36.1758 97.2532 35.9033 96.6497 35.3584C96.0462 34.8135 95.7444 34.1396 95.7444 33.3369C95.7444 32.3232 96.1194 31.5469 96.8694 31.0078C97.6253 30.4629 98.7034 30.1904 100.104 30.1904H101.413V29.5664C101.413 29.0742 101.276 28.6816 101 28.3887C100.725 28.0898 100.306 27.9404 99.7434 27.9404C99.2571 27.9404 98.8587 28.0635 98.5481 28.3096C98.2376 28.5498 98.0823 28.8574 98.0823 29.2324H95.9466C95.9466 28.7109 96.1194 28.2246 96.4651 27.7734C96.8108 27.3164 97.2796 26.959 97.8714 26.7012C98.469 26.4434 99.1341 26.3145 99.8665 26.3145C100.98 26.3145 101.867 26.5957 102.53 27.1582C103.192 27.7148 103.532 28.5 103.549 29.5137V33.8027C103.549 34.6582 103.669 35.3408 103.909 35.8506V36H101.73ZM99.3831 34.4619C99.805 34.4619 100.2 34.3594 100.57 34.1543C100.945 33.9492 101.226 33.6738 101.413 33.3281V31.5352H100.262C99.471 31.5352 98.8763 31.6729 98.4778 31.9482C98.0794 32.2236 97.8802 32.6133 97.8802 33.1172C97.8802 33.5273 98.0149 33.8555 98.2845 34.1016C98.5598 34.3418 98.9261 34.4619 99.3831 34.4619ZM105.949 36V26.4902H109.807C111.108 26.4902 112.098 26.7188 112.778 27.1758C113.457 27.627 113.797 28.2773 113.797 29.127C113.797 29.5664 113.659 29.9619 113.384 30.3135C113.115 30.6592 112.713 30.9258 112.18 31.1133C112.801 31.2422 113.293 31.5029 113.657 31.8955C114.02 32.2881 114.201 32.751 114.201 33.2842C114.201 34.1689 113.873 34.8428 113.217 35.3057C112.567 35.7686 111.629 36 110.405 36H105.949ZM108.084 31.9482V34.3125H110.422C111.518 34.3125 112.066 33.9199 112.066 33.1348C112.066 32.3438 111.509 31.9482 110.396 31.9482H108.084ZM108.084 30.4189H109.842C111.055 30.4189 111.661 30.0615 111.661 29.3467C111.661 28.5967 111.087 28.21 109.939 28.1865H108.084V30.4189ZM121.989 26.4902H124.116V36H121.989V29.6543L118.262 36H116.135V26.4902H118.262V32.8359L121.989 26.4902ZM133.871 28.1865H130.786V36H128.651V28.1865H125.601V26.4902H133.871V28.1865ZM137.598 29.5137H139.69C140.469 29.5137 141.149 29.6484 141.729 29.918C142.309 30.1875 142.748 30.5654 143.047 31.0518C143.352 31.5381 143.504 32.1035 143.504 32.748C143.504 33.7266 143.158 34.5117 142.467 35.1035C141.776 35.6953 140.856 35.9941 139.707 36H135.462V26.4902H137.598V29.5137ZM137.598 31.2275V34.2949H139.681C140.202 34.2949 140.613 34.166 140.911 33.9082C141.216 33.6445 141.368 33.2725 141.368 32.792C141.368 32.3115 141.219 31.9336 140.92 31.6582C140.627 31.377 140.229 31.2334 139.725 31.2275H137.598ZM156.899 29.0918C156.899 29.5137 156.77 29.9033 156.512 30.2607C156.26 30.6123 155.903 30.8936 155.44 31.1045C156.53 31.4854 157.074 32.2207 157.074 33.3105C157.074 34.1836 156.72 34.8809 156.011 35.4023C155.302 35.918 154.353 36.1758 153.163 36.1758C152.437 36.1758 151.775 36.0557 151.177 35.8154C150.579 35.5693 150.114 35.2236 149.78 34.7783C149.446 34.3271 149.279 33.7939 149.279 33.1787H151.406C151.406 33.5654 151.578 33.8906 151.924 34.1543C152.27 34.4121 152.706 34.541 153.234 34.541C153.755 34.541 154.168 34.4209 154.473 34.1807C154.783 33.9346 154.939 33.6152 154.939 33.2227C154.939 32.7598 154.804 32.4258 154.534 32.2207C154.265 32.0156 153.849 31.9131 153.286 31.9131H151.757V30.375H153.339C154.294 30.3633 154.772 29.9707 154.772 29.1973C154.772 28.8105 154.634 28.5088 154.359 28.292C154.083 28.0752 153.705 27.9668 153.225 27.9668C152.756 27.9668 152.361 28.084 152.038 28.3184C151.716 28.5469 151.555 28.8369 151.555 29.1885H149.428C149.428 28.3506 149.78 27.665 150.483 27.1318C151.186 26.5928 152.079 26.3232 153.163 26.3232C154.341 26.3232 155.258 26.5635 155.914 27.0439C156.571 27.5244 156.899 28.207 156.899 29.0918ZM164.572 36C164.478 35.8184 164.396 35.5225 164.325 35.1123C163.646 35.8213 162.814 36.1758 161.829 36.1758C160.874 36.1758 160.095 35.9033 159.491 35.3584C158.888 34.8135 158.586 34.1396 158.586 33.3369C158.586 32.3232 158.961 31.5469 159.711 31.0078C160.467 30.4629 161.545 30.1904 162.946 30.1904H164.255V29.5664C164.255 29.0742 164.117 28.6816 163.842 28.3887C163.567 28.0898 163.148 27.9404 162.585 27.9404C162.099 27.9404 161.7 28.0635 161.39 28.3096C161.079 28.5498 160.924 28.8574 160.924 29.2324H158.788C158.788 28.7109 158.961 28.2246 159.307 27.7734C159.653 27.3164 160.121 26.959 160.713 26.7012C161.311 26.4434 161.976 26.3145 162.708 26.3145C163.822 26.3145 164.709 26.5957 165.371 27.1582C166.033 27.7148 166.373 28.5 166.391 29.5137V33.8027C166.391 34.6582 166.511 35.3408 166.751 35.8506V36H164.572ZM162.225 34.4619C162.647 34.4619 163.042 34.3594 163.411 34.1543C163.786 33.9492 164.068 33.6738 164.255 33.3281V31.5352H163.104C162.313 31.5352 161.718 31.6729 161.32 31.9482C160.921 32.2236 160.722 32.6133 160.722 33.1172C160.722 33.5273 160.857 33.8555 161.126 34.1016C161.402 34.3418 161.768 34.4619 162.225 34.4619ZM176.243 26.4902V36H174.116V32.5107H172.121L170.091 36H167.876L170.117 32.1592C169.532 31.9131 169.08 31.5615 168.764 31.1045C168.453 30.6475 168.298 30.123 168.298 29.5312C168.298 28.6465 168.638 27.9229 169.318 27.3604C170.003 26.792 170.926 26.502 172.086 26.4902H176.243ZM170.434 29.584C170.434 29.9824 170.58 30.3076 170.873 30.5596C171.172 30.8057 171.553 30.9287 172.016 30.9287H174.116V28.1865H172.148C171.626 28.1865 171.21 28.3184 170.9 28.582C170.589 28.8457 170.434 29.1797 170.434 29.584ZM178.775 36V26.4902H182.633C183.934 26.4902 184.924 26.7188 185.604 27.1758C186.283 27.627 186.623 28.2773 186.623 29.127C186.623 29.5664 186.486 29.9619 186.21 30.3135C185.941 30.6592 185.539 30.9258 185.006 31.1133C185.627 31.2422 186.119 31.5029 186.483 31.8955C186.846 32.2881 187.028 32.751 187.028 33.2842C187.028 34.1689 186.699 34.8428 186.043 35.3057C185.393 35.7686 184.455 36 183.231 36H178.775ZM180.91 31.9482V34.3125H183.248C184.344 34.3125 184.892 33.9199 184.892 33.1348C184.892 32.3438 184.335 31.9482 183.222 31.9482H180.91ZM180.91 30.4189H182.668C183.881 30.4189 184.488 30.0615 184.488 29.3467C184.488 28.5967 183.913 28.21 182.765 28.1865H180.91V30.4189ZM192.257 32.2383H191.176V36H189.04V26.4902H191.176V30.2871H192.116L194.744 26.4902H197.381L193.945 31.043L197.671 36H194.894L192.257 32.2383ZM202.171 32.9414L204.105 26.4902H206.381L202.602 37.4414C202.022 39.041 201.037 39.8408 199.649 39.8408C199.338 39.8408 198.995 39.7881 198.62 39.6826V38.0303L199.025 38.0566C199.564 38.0566 199.968 37.957 200.238 37.7578C200.513 37.5645 200.73 37.2363 200.888 36.7734L201.196 35.9561L197.856 26.4902H200.158L202.171 32.9414Z" fill="white"/>
</g>
<path opacity="0.7" d="M2.92134 59.5L41.2713 0.5H71.0787L32.7287 59.5H2.92134Z" fill="white" stroke="#03AAEE"/>
<defs>
<filter id="filter0_i" x="0" y="0" width="270" height="60" filterUnits="userSpaceOnUse" color-interpolation-filters="sRGB">
<feFlood flood-opacity="0" result="BackgroundImageFix"/>
<feBlend mode="normal" in="SourceGraphic" in2="BackgroundImageFix" result="shape"/>
<feColorMatrix in="SourceAlpha" type="matrix" values="0 0 0 0 0 0 0 0 0 0 0 0 0 0 0 0 0 0 127 0" result="hardAlpha"/>
<feOffset/>
<feGaussianBlur stdDeviation="2"/>
<feComposite in2="hardAlpha" operator="arithmetic" k2="-1" k3="1"/>
<feColorMatrix type="matrix" values="0 0 0 0 0 0 0 0 0 0.392157 0 0 0 0 0.882353 0 0 0 0.3 0"/>
<feBlend mode="normal" in2="shape" result="effect1_innerShadow"/>
</filter>
<linearGradient id="paint0_linear" x1="0" y1="30" x2="270" y2="30" gradientUnits="userSpaceOnUse">
<stop stop-color="#0064E1"/>
<stop offset="1" stop-color="#03AAEE"/>
</linearGradient>
</defs>
</svg>
